<?xml version="1.0" encoding="utf-8"?>
<!-- Generator: Adobe Illustrator 24.2.1, SVG Export Plug-In . SVG Version: 6.00 Build 0)  -->
<svg version="1.1" id="Airplane_x5F_konturer" xmlns="http://www.w3.org/2000/svg" xmlns:xlink="http://www.w3.org/1999/xlink"
	 x="0px" y="0px" viewBox="0 0 500 300" style="enable-background:new 0 0 500 300;" xml:space="preserve">
<style type="text/css">
	.st0{fill:#223A59;}
	.st1{fill:#F2EDE4;}
</style>
<g>
	<path class="st0" d="M27.85,5.75h27.15c4.22,0,8.24,1.78,11.08,4.9l67.92,62.13h226.55c61.58,0,89.27,25.04,112.05,65.5l4.38,7.78
		c8.69,15.43-2.46,34.51-20.18,34.51H178.88c-81.93,0-109.03-38.44-119.91-82.94C52.24,70.08,50.19,44.9,41.52,30.3
		c-1.39-2.35-3.48-4.2-5.91-5.45l-14.56-7.48C18.13,12.17,21.89,5.75,27.85,5.75z"/>
</g>
<g>
	<path class="st1" d="M463.81,123.95c-16.3-24.9-39.32-45.83-83.33-50.26c0,0-2.7,49.82,18.57,49.85
		C428.11,123.58,463.62,123.69,463.81,123.95z"/>
	<path class="st0" d="M381.43,74.79c45.45,4.89,66.94,27.9,80.45,48.05c-0.96-0.02-2.3-0.04-4.17-0.06
		c-3.58-0.04-8.77-0.08-15.45-0.12c-10.74-0.06-25.27-0.1-43.21-0.13c-3.26-0.01-6.01-1.24-8.41-3.77
		C380.89,108.46,381.25,80.56,381.43,74.79 M380.48,73.68c0,0-2.7,49.82,18.57,49.85c29.06,0.04,64.57,0.15,64.76,0.41
		C447.51,99.05,424.49,78.12,380.48,73.68L380.48,73.68z"/>
</g>
<path class="st0" d="M324.23,110.71H204.66L172.7,243.11c-6.33,26.23,13.54,51.47,40.53,51.47h0c16.3,0,31.11-9.5,37.9-24.33
	L324.23,110.71z"/>
<g>
	<path class="st1" d="M319.33,127.13L319.33,127.13c7.25,0,13.13-5.88,13.13-13.13v-11.78c0-7.25-5.88-13.13-13.13-13.13h0
		c-7.25,0-13.13,5.88-13.13,13.13v11.78C306.2,121.25,312.08,127.13,319.33,127.13z"/>
</g>
<g>
	<path class="st1" d="M356.47,127.13L356.47,127.13c7.25,0,13.13-5.88,13.13-13.13v-11.78c0-7.25-5.88-13.13-13.13-13.13h0
		c-7.25,0-13.13,5.88-13.13,13.13v11.78C343.34,121.25,349.22,127.13,356.47,127.13z"/>
</g>
<g>
	<path class="st1" d="M282.2,127.13L282.2,127.13c7.25,0,13.13-5.88,13.13-13.13v-11.78c0-7.25-5.88-13.13-13.13-13.13h0
		c-7.25,0-13.13,5.88-13.13,13.13v11.78C269.06,121.25,274.94,127.13,282.2,127.13z"/>
</g>
<g>
	<path class="st1" d="M245.96,127.13L245.96,127.13c7.25,0,13.13-5.88,13.13-13.13v-11.78c0-7.25-5.88-13.13-13.13-13.13h0
		c-7.25,0-13.13,5.88-13.13,13.13v11.78C232.83,121.25,238.71,127.13,245.96,127.13z"/>
</g>
<g>
	<path class="st1" d="M209.73,127.13L209.73,127.13c7.25,0,13.13-5.88,13.13-13.13v-11.78c0-7.25-5.88-13.13-13.13-13.13h0
		c-7.25,0-13.13,5.88-13.13,13.13v11.78C196.6,121.25,202.48,127.13,209.73,127.13z"/>
</g>
<g>
	<path class="st1" d="M172.59,127.13L172.59,127.13c7.25,0,13.13-5.88,13.13-13.13v-11.78c0-7.25-5.88-13.13-13.13-13.13h0
		c-7.25,0-13.13,5.88-13.13,13.13v11.78C159.46,121.25,165.34,127.13,172.59,127.13z"/>
</g>
<g>
	<path class="st1" d="M136.36,127.13L136.36,127.13c7.25,0,13.13-5.88,13.13-13.13v-11.78c0-7.25-5.88-13.13-13.13-13.13h0
		c-7.25,0-13.13,5.88-13.13,13.13v11.78C123.22,121.25,129.11,127.13,136.36,127.13z"/>
</g>
</svg>
