<?xml version="1.0" encoding="utf-8"?>
<!-- Generator: Adobe Illustrator 24.2.1, SVG Export Plug-In . SVG Version: 6.00 Build 0)  -->
<svg version="1.1" id="Bike_x5F_Konturer" xmlns="http://www.w3.org/2000/svg" xmlns:xlink="http://www.w3.org/1999/xlink" x="0px"
	 y="0px" viewBox="0 0 500 300" style="enable-background:new 0 0 500 300;" xml:space="preserve">
<style type="text/css">
	.st0{fill:#223A59;}
	.st1{fill:#ABD99C;}
	.st2{fill:#F4A68C;}
	.st3{display:none;fill:#F4A68C;}
</style>
<g>
	<g>
		<circle class="st0" cx="393.8" cy="189.6" r="79.7"/>
	</g>
	<g>
		<circle class="st0" cx="106.2" cy="189.6" r="79.7"/>
	</g>
	<g>
		<circle class="st1" cx="106.2" cy="189.6" r="67.9"/>
		<path class="st2" d="M106.2,122.8c36.9,0,66.9,30,66.9,66.9s-30,66.9-66.9,66.9s-66.9-30-66.9-66.9S69.3,122.8,106.2,122.8
			 M106.2,121.8c-37.5,0-67.9,30.4-67.9,67.9s30.4,67.9,67.9,67.9s67.9-30.4,67.9-67.9S143.6,121.8,106.2,121.8L106.2,121.8z"/>
	</g>
	<g>
		<circle class="st1" cx="393.8" cy="189.6" r="67.9"/>
		<path class="st2" d="M393.8,122.8c36.9,0,66.9,30,66.9,66.9s-30,66.9-66.9,66.9s-66.9-30-66.9-66.9
			C327,152.8,357,122.8,393.8,122.8 M393.8,121.8c-37.5,0-67.9,30.4-67.9,67.9s30.4,67.9,67.9,67.9s67.9-30.4,67.9-67.9
			C461.7,152.2,431.3,121.8,393.8,121.8L393.8,121.8z"/>
	</g>
	
		<rect x="187" y="137.3" transform="matrix(1.940023e-02 -0.9998 0.9998 1.940023e-02 9.0411 365.3036)" class="st3" width="7.4" height="81.4"/>
	
		<rect x="131.6" y="138.3" transform="matrix(0.4725 -0.8813 0.8813 0.4725 -34.2695 226.7783)" class="st3" width="81.4" height="7.4"/>
	<polygon class="st3" points="181.7,76.8 175,80.1 223.2,184.9 229.9,181.5 	"/>
	
		<rect x="216.1" y="143.3" transform="matrix(0.8203 -0.5719 0.5719 0.8203 -34.4942 184.7376)" class="st3" width="121.4" height="7.9"/>
	
		<rect x="330.3" y="77" transform="matrix(0.8963 -0.4435 0.4435 0.8963 -22.7646 161.6645)" class="st3" width="7.9" height="105"/>
	<rect x="186" y="93.4" class="st3" width="132" height="8.5"/>
	<path class="st0" d="M393.1,194.4c-1.5,0-2.9-0.8-3.6-2.3L321.6,49c-0.6-1.2-0.5-2.7,0.2-3.8s2-1.9,3.4-1.9H337c2.2,0,4,1.8,4,4
		s-1.8,4-4,4h-5.5l65.1,137.4c1,2,0.1,4.4-1.9,5.3C394.3,194.3,393.7,194.4,393.1,194.4z"/>
	<path class="st0" d="M337,76.4H160.8c-2.2,0-4-1.8-4-4s1.8-4,4-4H337c2.2,0,4,1.8,4,4S339.3,76.4,337,76.4z"/>
	<path class="st0" d="M216.1,200.3c-0.3,0-0.6,0-0.9-0.1c-1.2-0.3-2.2-1.1-2.7-2.2L143.1,47.5c-0.9-2-0.1-4.4,2-5.3
		c2-0.9,4.4,0,5.3,2L217.6,190l127.3-98.7c1.8-1.3,4.3-1,5.6,0.7c1.4,1.8,1,4.3-0.7,5.6L218.5,199.4
		C217.8,200,216.9,200.3,216.1,200.3z"/>
	<path class="st0" d="M216.1,200.3c-0.1,0-0.1,0-0.2,0l-109.9-5.9c-1.4-0.1-2.6-0.8-3.3-2s-0.7-2.6,0-3.9l56.8-104.8
		c1.1-1.9,3.5-2.7,5.4-1.6s2.7,3.5,1.6,5.4l-53.8,99.2l103.6,5.5c2.2,0.1,3.9,2,3.8,4.2C219.9,198.6,218.2,200.3,216.1,200.3z"/>
	<path class="st0" d="M148.2,37c-15.8-6.8-28-10.3-28,1.5c0,7.4,8.9,10.3,17.7,10.3c8.9,0,38.4,0.2,38.4-7.4
		C176.2,37,158.5,41.4,148.2,37z"/>
	<rect x="307.5" y="78.9" class="st3" width="13.5" height="6"/>
	<circle class="st0" cx="341.5" cy="47.3" r="6.6"/>
	<circle class="st0" cx="216.1" cy="196.3" r="14.8"/>
	<g>
		<circle class="st0" cx="106.2" cy="189.6" r="8.9"/>
	</g>
	<g>
		<circle class="st0" cx="393.8" cy="189.6" r="8.9"/>
	</g>
	<path class="st0" d="M244.1,233.7c-0.6,0-1.2-0.3-1.6-0.7l-27.3-33.5c-0.7-0.9-0.6-2.1,0.3-2.8c0.9-0.7,2.1-0.6,2.8,0.3l27.3,33.5
		c0.7,0.9,0.6,2.1-0.3,2.8C245,233.5,244.5,233.7,244.1,233.7z"/>
	<path class="st0" d="M254.1,235.6l-17.7,2c-1.5,0.2-2.9-0.9-3.1-2.5l-0.4-3.2c-0.2-1.5,0.9-2.9,2.5-3.1l17.7-2
		c1.5-0.2,2.9,0.9,3.1,2.5l0.4,3.2C256.8,234,255.7,235.4,254.1,235.6z"/>
</g>
</svg>
