<?xml version="1.0" encoding="utf-8"?>
<!-- Generator: Adobe Illustrator 24.2.1, SVG Export Plug-In . SVG Version: 6.00 Build 0)  -->
<svg version="1.1" id="Bike_x5F_Konturer" xmlns="http://www.w3.org/2000/svg" xmlns:xlink="http://www.w3.org/1999/xlink" x="0px"
	 y="0px" viewBox="0 0 500 300" style="enable-background:new 0 0 500 300;" xml:space="preserve">
<style type="text/css">
	.st0{fill:#223A59;}
	.st1{fill:#F2EDE4;}
	.st2{fill:#F4A68C;}
	.st3{display:none;fill:#F4A68C;}
</style>
<g>
	<g>
		<circle class="st0" cx="393.84" cy="189.64" r="79.66"/>
	</g>
	<g>
		<circle class="st0" cx="106.16" cy="189.64" r="79.66"/>
	</g>
	<g>
		<circle class="st1" cx="106.16" cy="189.64" r="67.86"/>
		<path class="st2" d="M106.16,122.78c36.87,0,66.86,29.99,66.86,66.86c0,36.87-29.99,66.86-66.86,66.86S39.3,226.51,39.3,189.64
			C39.3,152.77,69.3,122.78,106.16,122.78 M106.16,121.78c-37.48,0-67.86,30.38-67.86,67.86c0,37.48,30.38,67.86,67.86,67.86
			s67.86-30.38,67.86-67.86C174.02,152.16,143.64,121.78,106.16,121.78L106.16,121.78z"/>
	</g>
	<g>
		<circle class="st1" cx="393.84" cy="189.64" r="67.86"/>
		<path class="st2" d="M393.84,122.78c36.87,0,66.86,29.99,66.86,66.86c0,36.87-29.99,66.86-66.86,66.86s-66.86-29.99-66.86-66.86
			C326.98,152.77,356.97,122.78,393.84,122.78 M393.84,121.78c-37.48,0-67.86,30.38-67.86,67.86c0,37.48,30.38,67.86,67.86,67.86
			s67.86-30.38,67.86-67.86C461.7,152.16,431.32,121.78,393.84,121.78L393.84,121.78z"/>
	</g>
	
		<rect x="187.04" y="137.33" transform="matrix(-0.0194 0.9998 -0.9998 -0.0194 372.4557 -9.2102)" class="st3" width="7.41" height="81.42"/>
	
		<rect x="168.6" y="101.29" transform="matrix(0.8814 0.4725 -0.4725 0.8814 87.5306 -64.5566)" class="st3" width="7.41" height="81.42"/>
	<polygon class="st3" points="181.73,76.79 175.03,80.1 223.22,184.85 229.92,181.54 	"/>
	
		<rect x="272.79" y="86.58" transform="matrix(0.5719 0.8203 -0.8203 0.5719 239.2854 -163.9736)" class="st3" width="7.91" height="121.38"/>
	
		<rect x="330.27" y="76.99" transform="matrix(0.8963 -0.4435 0.4435 0.8963 -22.758 161.67)" class="st3" width="7.92" height="105"/>
	
		<rect x="247.75" y="31.62" transform="matrix(6.161392e-06 -1 1 6.161392e-06 154.3795 349.6182)" class="st3" width="8.5" height="132"/>
	<path class="st2" d="M393.1,194.38c-1.5,0-2.93-0.84-3.62-2.29l-67.86-143.1c-0.59-1.24-0.5-2.69,0.23-3.85
		c0.73-1.16,2.01-1.86,3.38-1.86h11.8c2.21,0,4,1.79,4,4s-1.79,4-4,4h-5.48l65.15,137.38c0.95,2,0.1,4.38-1.9,5.33
		C394.26,194.25,393.68,194.38,393.1,194.38z"/>
	<path class="st2" d="M337.04,76.36H160.75c-2.21,0-4-1.79-4-4s1.79-4,4-4h176.29c2.21,0,4,1.79,4,4S339.25,76.36,337.04,76.36z"/>
	<path class="st2" d="M216.07,200.28c-0.32,0-0.64-0.04-0.95-0.11c-1.19-0.29-2.17-1.1-2.68-2.21L143.1,47.48
		c-0.92-2.01-0.05-4.38,1.96-5.31c2-0.92,4.38-0.05,5.31,1.96l67.23,145.9l127.32-98.71c1.75-1.35,4.26-1.04,5.61,0.71
		c1.35,1.75,1.04,4.26-0.71,5.61l-131.3,101.79C217.81,199.99,216.95,200.28,216.07,200.28z"/>
	<path class="st2" d="M216.07,200.28c-0.07,0-0.14,0-0.22-0.01l-109.94-5.87c-1.37-0.07-2.61-0.84-3.28-2.04
		c-0.67-1.2-0.68-2.65-0.03-3.86l56.83-104.78c1.05-1.94,3.48-2.66,5.42-1.61c1.94,1.05,2.66,3.48,1.61,5.42l-53.81,99.21
		l103.62,5.53c2.21,0.12,3.9,2,3.78,4.21C219.95,198.62,218.18,200.28,216.07,200.28z"/>
	<path class="st0" d="M148.21,36.95c-15.81-6.78-28.03-10.33-28.03,1.48c0,7.38,8.85,10.33,17.7,10.33c8.85,0,38.36,0.15,38.36-7.38
		C176.24,36.95,158.53,41.38,148.21,36.95z"/>
	<rect x="307.5" y="78.87" class="st3" width="13.5" height="6"/>
	<circle class="st0" cx="341.47" cy="47.28" r="6.64"/>
	<circle class="st0" cx="216.07" cy="196.28" r="14.75"/>
	<g>
		<circle class="st0" cx="106.16" cy="189.64" r="8.85"/>
	</g>
	<g>
		<circle class="st0" cx="393.84" cy="189.64" r="8.85"/>
	</g>
	<path class="st0" d="M244.1,233.68c-0.58,0-1.16-0.25-1.55-0.74l-27.29-33.53c-0.7-0.86-0.57-2.12,0.29-2.81
		c0.86-0.7,2.12-0.57,2.81,0.29l27.29,33.53c0.7,0.86,0.57,2.12-0.29,2.81C244.99,233.54,244.54,233.68,244.1,233.68z"/>
	<path class="st2" d="M254.15,235.59l-17.74,2.03c-1.54,0.18-2.93-0.93-3.11-2.47l-0.37-3.22c-0.18-1.54,0.93-2.93,2.47-3.11
		l17.74-2.03c1.54-0.18,2.93,0.93,3.11,2.47l0.37,3.22C256.8,234.02,255.69,235.41,254.15,235.59z"/>
</g>
</svg>
