<?xml version="1.0" encoding="utf-8"?>
<!-- Generator: Adobe Illustrator 24.2.1, SVG Export Plug-In . SVG Version: 6.00 Build 0)  -->
<svg version="1.1" id="Lager_1_kopia" xmlns="http://www.w3.org/2000/svg" xmlns:xlink="http://www.w3.org/1999/xlink" x="0px"
	 y="0px" viewBox="0 0 500 300" style="enable-background:new 0 0 500 300;" xml:space="preserve">
<style type="text/css">
	.st0{fill:#F4A68C;}
	.st1{fill:#F2EDE4;}
	.st2{fill:#223A59;}
</style>
<g>
	<g>
		<path class="st0" d="M431.58,38.5H68.42c-12.66,0-22.92,10.26-22.92,22.92v136.16c0,12.66,10.26,22.92,22.92,22.92h37.39
			c2.63,0,4.84-1.92,5.26-4.51c3.35-20.69,21.3-36.49,42.93-36.49s39.58,15.8,42.93,36.49c0.42,2.59,2.63,4.51,5.26,4.51h104.62
			c2.63,0,4.84-1.92,5.26-4.51c3.35-20.69,21.3-36.49,42.93-36.49s39.58,15.8,42.93,36.49c0.42,2.59,2.63,4.51,5.26,4.51h28.39
			c12.66,0,22.92-10.26,22.92-22.92V61.42C454.5,48.76,444.24,38.5,431.58,38.5z"/>
	</g>
	<g>
		<path class="st1" d="M45.5,160.85V64.93c0-13.43,4-16.43,6-16.32c4-0.12,38.55,0,38.55,0c5.76,0,10.41,4.51,10.35,10.03
			l-0.74,86.72c-0.09,8.46-7.6,15.31-16.92,15.43C67.11,161.02,46.13,161.23,45.5,160.85z"/>
		<path class="st0" d="M63.27,49.56c11.29,0,26.62,0.05,26.78,0.05c2.6,0,5.01,0.99,6.79,2.8c1.67,1.69,2.58,3.9,2.56,6.23
			l-0.74,86.72c-0.08,7.85-7.23,14.33-15.93,14.44c-8.5,0.12-20.3,0.25-28.22,0.25c-4.88,0-7.04-0.05-8-0.1V64.93
			c0-12.57,3.53-15.32,4.89-15.32l0.05,0l0.04,0l0.04,0C52.7,49.58,56.65,49.56,63.27,49.56 M63.27,48.56
			c-5.71,0-10.44,0.01-11.77,0.05c-0.04,0-0.07,0-0.11,0c-2.03,0-5.89,3.13-5.89,16.32v95.91c0.25,0.15,3.81,0.21,9,0.21
			c7.68,0,18.91-0.13,28.23-0.25c9.32-0.13,16.83-6.98,16.92-15.43l0.74-86.72c0.06-5.52-4.59-10.03-10.35-10.03
			C90.05,48.62,74.69,48.56,63.27,48.56L63.27,48.56z"/>
	</g>
	<g>
		<ellipse class="st1" cx="66.5" cy="190" rx="15" ry="15.5"/>
	</g>
	<g>
		<path class="st1" d="M407.83,141.5H153.17c-11.42,0-20.67-9.25-20.67-20.67V70.17c0-11.42,9.25-20.67,20.67-20.67h254.66
			c11.42,0,20.67,9.25,20.67,20.67v50.66C428.5,132.25,419.25,141.5,407.83,141.5z"/>
	</g>
	<g>
		<circle class="st2" cx="154.5" cy="222.5" r="39"/>
	</g>
	<g>
		<circle class="st2" cx="355.5" cy="222.5" r="39"/>
	</g>
	<g>
		<rect x="227.5" y="48.5" class="st0" width="4" height="101"/>
	</g>
	<g>
		<rect x="327.5" y="48.5" class="st0" width="4" height="101"/>
	</g>
</g>
</svg>
