<?xml version="1.0" encoding="utf-8"?>
<!-- Generator: Adobe Illustrator 24.2.1, SVG Export Plug-In . SVG Version: 6.00 Build 0)  -->
<svg version="1.1" id="Lager_1_kopia" xmlns="http://www.w3.org/2000/svg" xmlns:xlink="http://www.w3.org/1999/xlink" x="0px"
	 y="0px" viewBox="0 0 500 300" style="enable-background:new 0 0 500 300;" xml:space="preserve">
<style type="text/css">
	.st0{fill:#ABD99C;}
	.st1{fill:#223A59;}
	.st2{fill:#F2EDE4;}
	.st3{fill:#C3E6BA;}
</style>
<g>
	<g>
		<path class="st0" d="M26.34,199.91l3.26-28.66c13.4-68,37.4-138,177.4-138h21c54,0,92,23,115.15,47.28
			c18.62,19.53,32.85,33.72,62.07,46.34S474,150.25,474,194.25v26c0,10.58-8.58,20-19.16,20h-53.82c1.6-4.71,2.49-9.75,2.49-15
			c0-25.68-20.82-46.5-46.5-46.5s-46.5,20.82-46.5,46.5c0,5.25,0.88,10.29,2.49,15H152.01c1.6-4.71,2.49-9.75,2.49-15
			c0-25.68-20.82-46.5-46.5-46.5s-46.5,20.82-46.5,46.5c0,4.96,0.78,9.74,2.22,14.22C45.56,235.76,23,227.25,26.34,199.91z"/>
	</g>
	<circle class="st1" cx="108" cy="225.25" r="41.5"/>
	<circle class="st1" cx="357" cy="225.25" r="41.5"/>
	<ellipse class="st2" cx="451" cy="186.25" rx="15.5" ry="16.5"/>
	<path class="st2" d="M353.96,130.75H90.19c-4.13,0-7.27-3.72-6.55-7.79c2.62-14.78,11.62-45.02,30.85-60.21
		c19-15,53.01-18.41,128-17c53,1,97.93,51.25,116.62,74.16C362.66,124.25,359.56,130.75,353.96,130.75z"/>
	<path class="st2" d="M353.96,130.75h-143.2l-1.27-85.29c0,0,22.67,0.1,33,0.29c53,1,97.93,51.25,116.62,74.16
		C362.66,124.25,359.56,130.75,353.96,130.75z"/>
	<path class="st3" d="M211.5,150.68c0,0.76,37.5,0.76,37.5,0c0-6.04-8.39-10.93-18.75-10.93
		C219.89,139.75,211.5,144.64,211.5,150.68z"/>
	<path class="st3" d="M205.94,202.39c-6.99-38.17-9.27-130.52-1.92-156.78l0.09-0.33l0.34-0.03c0.34-0.03,33.68-2.98,59.16,3.01
		c16.1,3.79,26.68,10.15,38.92,17.52l2.22,1.34l0.15,0.13c14.75,20.13,13.08,97.96,4.21,136.17c-1.89,8.14-9.08,13.82-17.49,13.82
		H223.7C214.98,217.25,207.51,211,205.94,202.39z M302.02,66.64c-12.17-7.33-22.69-13.65-38.63-17.41
		c-23.93-5.63-54.89-3.31-58.5-3.02c-7.01,25.9-4.8,118.65,2.04,156c1.49,8.13,8.54,14.04,16.78,14.04h67.92
		c7.94,0,14.74-5.37,16.52-13.05c8.82-37.99,10.56-115.21-3.99-135.27L302.02,66.64z"/>
</g>
</svg>
