<?xml version="1.0" encoding="utf-8"?>
<!-- Generator: Adobe Illustrator 24.2.1, SVG Export Plug-In . SVG Version: 6.00 Build 0)  -->
<svg version="1.1" xmlns="http://www.w3.org/2000/svg" xmlns:xlink="http://www.w3.org/1999/xlink" x="0px" y="0px"
	 viewBox="0 0 1080 1080" style="enable-background:new 0 0 1080 1080;" xml:space="preserve">
<style type="text/css">
	.st0{display:none;}
	.st1{display:inline;}
	.st2{fill:#223A59;}
	.st3{fill:#F2EDE4;}
	.st4{fill:#5281B5;}
	.st5{fill:#175A96;}
	.st6{fill:#18487C;}
	.st7{fill:#97C8DB;}
	.st8{fill:#B5D7E2;}
	.st9{fill:#D8E6EA;}
	.st10{display:inline;fill:#61BF5E;}
	.st11{display:inline;fill:#ABD99C;}
	.st12{fill:#61BF5E;}
	.st13{display:inline;fill:#F2EDE4;}
	.st14{display:inline;fill:#F4A68C;}
	.st15{display:none;fill:#F2EDE4;}
	.st16{fill:#F4A68C;}
	.st17{display:none;fill:none;stroke:#000000;stroke-width:18;stroke-linecap:round;stroke-linejoin:round;stroke-miterlimit:10;}
	.st18{fill:#FFFFFF;}
	.st19{display:inline;fill:none;stroke:#F4A68C;stroke-width:50;stroke-linecap:round;stroke-linejoin:round;stroke-miterlimit:10;}
	.st20{display:none;opacity:0.33;}
	.st21{fill:url(#SVGID_1_);}
</style>
<g id="Lager_1_kopia_3" class="st0">
	<g class="st1">
		<circle class="st2" cx="512.5" cy="479.5" r="981.5"/>
	</g>
</g>
<g id="Lager_1_kopia_2" class="st0">
	<g class="st1">
		<circle class="st3" cx="540" cy="540" r="360.5"/>
	</g>
</g>
<g id="Lager_1_kopia_4" class="st0">
	<g class="st1">
		<circle class="st3" cx="1318.5" cy="55.5" r="360.5"/>
	</g>
</g>
<g id="Lager_1_kopia" class="st0">
	<g class="st1">
		<circle class="st4" cx="540" cy="540" r="360.5"/>
	</g>
</g>
<g id="Lager_1_kopia_6" class="st0">
	<g class="st1">
		<circle class="st5" cx="540" cy="540" r="360.5"/>
	</g>
</g>
<g id="Lager_1" class="st0">
	<g class="st1">
		<circle class="st6" cx="540" cy="540" r="360.5"/>
	</g>
</g>
<g id="Lager_1_kopia_7" class="st0">
	<g class="st1">
		<circle class="st7" cx="540" cy="540" r="360.5"/>
	</g>
</g>
<g id="Lager_1_kopia_9">
	<g>
		<circle class="st8" cx="540" cy="540" r="360.5"/>
	</g>
</g>
<g id="Lager_1_kopia_10">
	<g>
		<circle class="st9" cx="540" cy="540" r="360.5"/>
	</g>
</g>
<g id="Lager_1_kopia_8" class="st0">
	<g class="st1">
		<circle class="st2" cx="540" cy="540" r="360.5"/>
	</g>
</g>
<g id="Lager_2" class="st0">
	<path class="st10" d="M613.5,296.5c-32.84,41.54-53,81-29,112s139-21,149,10c4.69,14.54-38.96,17.47-72,43
		c-37.42,28.92-73.24,84.98-55,121c39,77,85,20,120,63S651.83,863.43,713,831c83-44,158.5-175.5,169.5-210.5s17.56-133.78,1-186
		c-19.5-61.5-40-105-105-166S618,188,618,188C651,219,647.5,253.5,613.5,296.5z"/>
	<path class="st10" d="M422.5,872.5c-68-25-73-75-160-155c-42.48-39.06-48.06-82.94-52-167c-3-64-10-71-14-93s7-43,12-60
		C246,306,318,253,342,238s66-46,169-58c-5,54-6.5,81.5-33.5,82.5s-29-26-52-34s-35,16-20,30s54,29,23,68s-59,37-120,119
		c-11.76,15.8-75-16-87,18s3,77,3,77s12-14,31-26s28,10,53,14s28,46,53,73s98.52,18.34,120,78c6.79,18.87-23.11,61.2-53,119
		C413.5,827.5,434.26,869.8,422.5,872.5z"/>
</g>
<g id="Lager_2_kopia" class="st0">
	<path class="st11" d="M613.5,296.5c-32.84,41.54-53,81-29,112s139-21,149,10c4.69,14.54-38.96,17.47-72,43
		c-37.42,28.92-73.24,84.98-55,121c39,77,90,25,125,68S693.83,856.43,755,824c83-44,130.24-164.94,137-201c9-48,13.52-124.64-5-182
		c-20.5-63.5-43.5-111.5-108.5-172.5S618,188,618,188C651,219,647.5,253.5,613.5,296.5z"/>
	<path class="st11" d="M417,879c-68-25-137-73-184-152c-29.5-49.59-31.56-89.44-35.5-173.5c-3-64-6.79-64.21-8.5-86.5
		c-1-13,14.5-52.5,19.5-69.5C246,306,318,253,342,238s66-46,169-58c-30,41-19,69-46,70s-16.5-13.5-39.5-21.5s-35,16-20,30
		S437,271,406,310s-64,30-125,112c-11.76,15.8-64.5,9.5-76.5,43.5s-3.5,66.5,7,78S222,536,241,524s30-6,50,14c17.9,17.9,15,46,40,73
		s81.52,21.34,103,81c6.79,18.87-0.61,60.7-30.5,118.5C388.5,839.5,428.76,876.3,417,879z"/>
</g>
<g id="Lager_2_kopia_3">
	<path class="st12" d="M613.5,296.5c-32.84,41.54-53,81-29,112s139-21,149,10c4.69,14.54-38.96,17.47-72,43
		c-37.42,28.92-73.24,84.98-55,121c39,77,90,25,125,68S693.83,856.43,755,824c83-44,130.24-164.94,137-201c9-48,13.52-124.64-5-182
		c-20.5-63.5-43.5-111.5-108.5-172.5S618,188,618,188C651,219,647.5,253.5,613.5,296.5z"/>
	<path class="st12" d="M417,879c-68-25-137-73-184-152c-29.5-49.59-31.56-89.44-35.5-173.5c-3-64-6.79-64.21-8.5-86.5
		c-1-13,14.5-52.5,19.5-69.5C246,306,318,253,342,238s66-46,169-58c-30,41-19,69-46,70s-16.5-13.5-39.5-21.5s-35,16-20,30
		S437,271,406,310s-64,30-125,112c-11.76,15.8-64.5,9.5-76.5,43.5s-3.5,66.5,7,78S222,536,241,524s30-6,50,14c17.9,17.9,15,46,40,73
		s81.52,21.34,103,81c6.79,18.87-0.61,60.7-30.5,118.5C388.5,839.5,428.76,876.3,417,879z"/>
</g>
<g id="Lager_2_kopia_2" class="st0">
	<g class="st1">
		<path class="st3" d="M613.5,296.5c-32.84,41.54-53,81-29,112s139-21,149,10c4.69,14.54-38.96,17.47-72,43
			c-37.42,28.92-73.24,84.98-55,121c39,77,90,25,125,68S693.83,856.43,755,824c83-44,130.24-164.94,137-201c9-48,13.52-124.64-5-182
			c-20.5-63.5-43.5-111.5-108.5-172.5S618,188,618,188C651,219,647.5,253.5,613.5,296.5z"/>
	</g>
	<g class="st1">
		<path class="st3" d="M417,879c-68-25-137-73-184-152c-29.5-49.59-31.56-89.44-35.5-173.5c-3-64-6.79-64.21-8.5-86.5
			c-1-13,14.5-52.5,19.5-69.5C246,306,318,253,342,238s66-46,169-58c-30,41-19,69-46,70s-16.5-13.5-39.5-21.5s-35,16-20,30
			S437,271,406,310s-64,30-125,112c-11.76,15.8-64.5,9.5-76.5,43.5s-3.5,66.5,7,78S222,536,241,524s30-6,50,14
			c17.9,17.9,15,46,40,73s81.52,21.34,103,81c6.79,18.87-0.61,60.7-30.5,118.5C388.5,839.5,428.76,876.3,417,879z"/>
	</g>
</g>
<g id="Lager_4" class="st0">
	<circle class="st13" cx="403.5" cy="494.5" r="41.5"/>
	<circle class="st13" cx="652.5" cy="494.5" r="41.5"/>
	<g class="st1">
		<circle cx="408" cy="497" r="35"/>
	</g>
	<g class="st1">
		<circle cx="649" cy="498" r="35"/>
	</g>
	<path class="st14" d="M455.76,629h157.59c4.66,0,8.16,4.3,7.17,8.86C615.98,658.68,586,709,535,709s-81.56-50.18-86.39-71.06
		C447.56,633.37,451.06,629,455.76,629z"/>
</g>
<g id="Lager_4_kopia" class="st0">
	<circle class="st3" cx="403.5" cy="494.5" r="41.5"/>
	<circle class="st3" cx="652.5" cy="494.5" r="41.5"/>
	<circle class="st13" cx="403.5" cy="494.5" r="41.5"/>
	<circle class="st13" cx="639.5" cy="468.5" r="76.5"/>
	<circle class="st13" cx="406.5" cy="473.5" r="76.5"/>
	<g class="st1">
		<circle cx="404" cy="496" r="35"/>
	</g>
	<g class="st1">
		<circle cx="653" cy="497" r="35"/>
	</g>
	<g class="st1">
		<path d="M455.76,629h157.59c4.66,0,8.16,4.3,7.17,8.86C615.98,658.68,586,709,535,709s-81.56-50.18-86.39-71.06
			C447.56,633.37,451.06,629,455.76,629z"/>
	</g>
	<path class="st14" d="M488.88,692.85c-0.22,0.15-0.42,0.29-0.64,0.44C501.03,702.54,516.7,709,535,709
		c17.73,0,32.92-6.09,45.38-14.9c-0.31-0.42-0.63-0.83-0.97-1.25C567.83,678.7,524,669,488.88,692.85z"/>
</g>
<g id="Lager_4_kopia_2" class="st0">
	<circle class="st3" cx="403.5" cy="494.5" r="41.5"/>
	<circle class="st3" cx="652.5" cy="494.5" r="41.5"/>
	<circle class="st3" cx="403.5" cy="494.5" r="41.5"/>
	<circle class="st13" cx="639.5" cy="468.5" r="76.5"/>
	<circle class="st13" cx="406.5" cy="473.5" r="76.5"/>
	<g class="st1">
		<circle cx="664.5" cy="484.5" r="48.5"/>
	</g>
	<g class="st1">
		<circle cx="434.5" cy="483.5" r="48.5"/>
	</g>
	<g class="st1">
		<path d="M455.76,629h157.59c4.66,0,8.16,4.3,7.17,8.86C615.98,658.68,586,709,535,709s-81.56-50.18-86.39-71.06
			C447.56,633.37,451.06,629,455.76,629z"/>
	</g>
	<path class="st14" d="M488.88,692.85c-0.22,0.15-0.42,0.29-0.64,0.44C501.03,702.54,516.7,709,535,709
		c17.73,0,32.92-6.09,45.38-14.9c-0.31-0.42-0.63-0.83-0.97-1.25C567.83,678.7,524,669,488.88,692.85z"/>
</g>
<g id="Lager_4_kopia_3">
	<circle class="st15" cx="403.5" cy="494.5" r="41.5"/>
	<circle class="st15" cx="652.5" cy="494.5" r="41.5"/>
	<circle class="st15" cx="403.5" cy="494.5" r="41.5"/>
	<circle class="st15" cx="639.5" cy="468.5" r="76.5"/>
	<circle class="st15" cx="406.5" cy="473.5" r="76.5"/>
	<g>
		<circle cx="404" cy="496" r="35"/>
	</g>
	<g>
		<circle cx="653" cy="497" r="35"/>
	</g>
	<g>
		<path d="M455.76,629h157.59c4.66,0,8.16,4.3,7.17,8.86C615.98,658.68,586,709,535,709s-81.56-50.18-86.39-71.06
			C447.56,633.37,451.06,629,455.76,629z"/>
	</g>
	<path class="st16" d="M488.88,692.85c-0.22,0.15-0.42,0.29-0.64,0.44C501.03,702.54,516.7,709,535,709
		c17.73,0,32.92-6.09,45.38-14.9c-0.31-0.42-0.63-0.83-0.97-1.25C567.83,678.7,524,669,488.88,692.85z"/>
</g>
<g id="Lager_10">
	<path d="M712,454c-2.62,0-5.24-1.02-7.2-3.06c-0.32-0.33-21.38-21.6-54.14-26.03c-5.47-0.74-9.31-5.78-8.57-11.25
		c0.74-5.47,5.78-9.31,11.25-8.57c40,5.41,64.84,30.91,65.88,31.99c3.82,3.99,3.69,10.32-0.3,14.14
		C716.98,453.08,714.49,454,712,454z"/>
	<path d="M348,454c2.62,0,5.24-1.02,7.2-3.06c0.32-0.33,21.38-21.6,54.14-26.03c5.47-0.74,9.31-5.78,8.57-11.25
		c-0.74-5.47-5.78-9.31-11.25-8.57c-40,5.41-64.84,30.91-65.88,31.99c-3.82,3.99-3.69,10.32,0.3,14.14
		C343.02,453.08,345.51,454,348,454z"/>
	<path class="st17" d="M712,444c0,0-23-24-60-29"/>
	<path class="st18" d="M417,480c-3,1-6,9-3,12s11,4,12,1S420,479,417,480z"/>
	<path class="st18" d="M666,480c-3,1-6,9-3,12s11,4,12,1S669,479,666,480z"/>
</g>
<g id="Lager_5" class="st0">
	<path class="st19" d="M465,645c0,0,80,40,174,0"/>
</g>
<g id="Lager_1_kopia_5" class="st20">
	<g class="st1">
		<radialGradient id="SVGID_1_" cx="540" cy="540" r="360.5" gradientUnits="userSpaceOnUse">
			<stop  offset="0" style="stop-color:#FFFFFF"/>
			<stop  offset="1" style="stop-color:#000000"/>
		</radialGradient>
		<circle class="st21" cx="540" cy="540" r="360.5"/>
	</g>
</g>
</svg>
