<?xml version="1.0" encoding="utf-8"?>
<!-- Generator: Adobe Illustrator 24.2.1, SVG Export Plug-In . SVG Version: 6.00 Build 0)  -->
<svg version="1.1" xmlns="http://www.w3.org/2000/svg" xmlns:xlink="http://www.w3.org/1999/xlink" x="0px" y="0px"
	 viewBox="0 0 1080 1080" style="enable-background:new 0 0 1080 1080;" xml:space="preserve">
<style type="text/css">
	.st0{fill:#D8E6EA;}
	.st1{fill:#61BF5E;}
	.st2{display:none;fill:#F2EDE4;}
	.st3{fill:#F4A68C;}
	.st4{fill:#FFFFFF;}
</style>
<g id="Water">
	<g>
		<circle class="st0" cx="540" cy="540" r="535"/>
	</g>
</g>
<g id="Land">
	<path class="st1" d="M649.08,178.63c-48.74,61.64-78.65,120.21-43.04,166.21s206.28-31.17,221.12,14.84
		c6.96,21.57-57.82,25.93-106.85,63.81c-55.53,42.91-108.7,126.11-81.62,179.57c57.88,114.27,133.56,37.1,185.51,100.92
		s-55.9,305.61,34.88,257.48c123.18-65.3,193.28-244.78,203.31-298.29c13.36-71.23,20.06-184.98-7.42-270.1
		c-30.42-94.24-64.56-165.47-161.02-256S655.76,17.61,655.76,17.61C704.73,63.62,699.54,114.82,649.08,178.63z"/>
	<path class="st1" d="M357.46,1043.09c-100.92-37.1-203.31-108.34-273.07-225.58c-43.79-73.6-46.84-132.74-52.68-257.48
		c-4.45-94.98-10.07-95.28-12.61-128.37c-1.48-19.29,21.52-77.91,28.94-103.14c55.65-135.79,162.5-214.45,198.12-236.71
		s97.95-68.27,250.8-86.07c-44.52,60.85-28.2,102.4-68.27,103.88c-40.07,1.48-24.49-20.03-58.62-31.91s-51.94,23.74-29.68,44.52
		c22.26,20.78,46.75,18.55,0.74,76.43s-94.98,44.52-185.51,166.21c-17.45,23.45-95.72,14.1-113.53,64.56s-5.19,98.69,10.39,115.76
		c15.58,17.07,15.58-11.13,43.78-28.94s44.52-8.9,74.2,20.78c26.57,26.57,22.26,68.27,59.36,108.34s120.98,31.67,152.86,120.21
		c10.08,28.01-0.9,90.09-45.26,175.86C315.17,984.47,374.92,1039.09,357.46,1043.09z"/>
</g>
<g id="Face">
	<circle class="st2" cx="403.5" cy="494.5" r="41.5"/>
	<circle class="st2" cx="652.5" cy="494.5" r="41.5"/>
	<circle class="st2" cx="403.5" cy="494.5" r="41.5"/>
	<circle class="st2" cx="639.5" cy="468.5" r="76.5"/>
	<circle class="st2" cx="406.5" cy="473.5" r="76.5"/>
	<g>
		<circle cx="338.17" cy="474.7" r="51.94"/>
	</g>
	<g>
		<circle cx="707.7" cy="476.19" r="51.94"/>
	</g>
	<g>
		<path d="M414.99,672.08h233.87c6.92,0,12.11,6.38,10.64,13.14c-6.73,30.9-51.22,105.58-126.91,105.58s-121.03-74.47-128.2-105.45
			C402.81,678.56,408.01,672.08,414.99,672.08z"/>
	</g>
	<path class="st3" d="M464.14,766.84c-0.32,0.22-0.63,0.43-0.95,0.65c18.98,13.73,42.23,23.31,69.39,23.31
		c26.32,0,48.86-9.03,67.35-22.11c-0.45-0.62-0.93-1.24-1.44-1.85C581.3,745.84,516.26,731.44,464.14,766.84z"/>
	<path class="st4" d="M357.46,450.96c-4.45,1.48-8.9,13.36-4.45,17.81s16.32,5.94,17.81,1.48
		C372.3,465.8,361.91,449.47,357.46,450.96z"/>
	<path class="st4" d="M726.99,450.96c-4.45,1.48-8.9,13.36-4.45,17.81s16.32,5.94,17.81,1.48S731.44,449.47,726.99,450.96z"/>
	<path d="M795.26,412.37c-3.89,0-7.78-1.52-10.69-4.54c-0.48-0.49-31.72-32.06-80.34-38.63c-8.12-1.1-13.82-8.57-12.72-16.69
		c1.1-8.12,8.58-13.81,16.69-12.72c59.37,8.02,96.23,45.87,97.77,47.48c5.67,5.92,5.47,15.31-0.45,20.98
		C802.65,411,798.95,412.37,795.26,412.37z"/>
	<path d="M255.06,412.37c3.89,0,7.78-1.52,10.69-4.54c0.48-0.49,31.72-32.06,80.34-38.63c8.12-1.1,13.82-8.57,12.72-16.69
		c-1.1-8.12-8.58-13.81-16.69-12.72c-59.37,8.02-96.23,45.87-97.77,47.48c-5.67,5.92-5.47,15.31,0.45,20.98
		C247.67,411,251.37,412.37,255.06,412.37z"/>
</g>
</svg>
