<?xml version="1.0" encoding="utf-8"?>
<!-- Generator: Adobe Illustrator 24.2.1, SVG Export Plug-In . SVG Version: 6.00 Build 0)  -->
<svg version="1.1" xmlns="http://www.w3.org/2000/svg" xmlns:xlink="http://www.w3.org/1999/xlink" x="0px" y="0px"
	 viewBox="0 0 500 500" style="enable-background:new 0 0 500 500;" xml:space="preserve">
<style type="text/css">
	.st0{display:none;}
	.st1{display:inline;}
	.st2{fill:#61BF5E;}
	.st3{fill:#45A040;}
	.st4{fill:#223A59;}
	.st5{display:inline;fill:#223A59;}
	.st6{font-family:'Nunito-Black';}
	.st7{font-size:57.4812px;}
	.st8{fill:#BF6F41;}
	.st9{fill:#9E522D;}
	.st10{fill:#F2EDE4;}
	.st11{fill:#152B44;}
	.st12{fill:#F4A68C;}
	.st13{fill:#DD8C76;}
	.st14{fill:#ABD99C;}
	.st15{fill:#97C685;}
</style>
<g id="METALL" class="st0">
	<g class="st1">
		<path class="st2" d="M410.3,460.49H88.75c-10.11,0-18.64-7.55-19.85-17.59l-35.15-290c-1.44-11.91,7.85-22.41,19.85-22.41h391.86
			c12,0,21.3,10.49,19.85,22.41l-35.15,290C428.94,452.94,420.42,460.49,410.3,460.49z"/>
	</g>
	<g class="st1">
		<path class="st3" d="M35.81,169.94l-2.07-17.04c-1.44-11.91,7.85-22.41,19.85-22.41h391.86c12,0,21.3,10.49,19.85,22.41
			L463.23,170L35.81,169.94z"/>
	</g>
	<g class="st1">
		<path class="st2" d="M462.02,155.49h-425c-11.05,0-20-8.95-20-20v-75c0-11.05,8.95-20,20-20h425c11.05,0,20,8.95,20,20v75
			C482.02,146.53,473.07,155.49,462.02,155.49z"/>
	</g>
	<g class="st1">
		<path class="st4" d="M226.95,194.62c0,0.03,0,0.06,0.01,0.09c1.17,0.4,2.34,0.83,3.52,1.21c4.74,1.5,8.4,4.43,11.32,8.39
			c2.55,3.46,4.79,7.11,6.68,10.96c2.65,5.4,5.22,10.84,7.83,16.26c0.66,1.38,1.32,2.77,1.99,4.17c-0.26,0.13-0.47,0.24-0.68,0.34
			c-1.75,0.83-3.49,1.66-5.24,2.49c-0.5,0.23-0.92,0.52-1.08,1.09c-0.36,1.28,0.28,2.21,1.67,2.33c1.61,0.15,3.23,0.27,4.84,0.4
			c3.29,0.27,6.58,0.53,9.87,0.79c2.66,0.21,5.32,0.42,7.98,0.63c3.29,0.26,6.58,0.52,9.87,0.8c0.43,0.04,0.66-0.09,0.88-0.47
			c4.19-7.09,8.4-14.16,12.6-21.24c1.13-1.9,2.27-3.8,3.33-5.73c0.57-1.04,0.76-2.2,0.45-3.39c-0.19-0.73-0.71-0.99-1.39-0.7
			c-1.94,0.82-3.87,1.67-5.8,2.52c-0.93,0.41-1.86,0.84-2.8,1.27c-0.13-0.24-0.23-0.43-0.32-0.62c-2.09-4.16-4.2-8.31-6.28-12.48
			c-1.84-3.68-4.68-6.2-8.53-7.62c-3.14-1.16-6.4-1.5-9.72-1.5c-13.47,0-26.93,0-40.4,0C227.34,194.62,227.14,194.62,226.95,194.62z
			 M198.06,320.16c0.02-0.01,0.05-0.02,0.07-0.03c-0.01-0.1-0.01-0.19-0.03-0.29c-0.22-1.6-0.53-3.2-0.65-4.81
			c-0.32-4.41,0.7-8.54,3.04-12.27c5.86-9.33,11.8-18.61,17.71-27.91c0.07-0.11,0.17-0.2,0.26-0.3c2.12,1.3,4.22,2.55,6.29,3.86
			c0.58,0.37,1.09,0.3,1.6,0c0.53-0.3,0.69-0.85,0.53-1.39c-0.25-0.86-0.5-1.75-0.92-2.54c-4.84-9.14-9.71-18.26-14.55-27.39
			c-0.22-0.41-0.45-0.54-0.91-0.52c-4.64,0.13-9.29,0.25-13.93,0.36c-5.77,0.14-11.54,0.26-17.32,0.4
			c-0.57,0.01-1.15,0.04-1.72,0.09c-0.91,0.07-1.58,0.59-1.8,1.38c-0.27,0.94-0.12,1.3,0.83,1.98c0.27,0.19,0.56,0.38,0.84,0.55
			c2.03,1.23,4.06,2.45,6.08,3.68c0.14,0.09,0.28,0.19,0.43,0.3c-1.5,2.33-3,4.61-4.44,6.92c-1.57,2.53-3.16,5.05-4.59,7.66
			c-0.99,1.81-1.53,3.8-1.22,5.93c0.29,1.95,1.07,3.7,2.04,5.39c6.92,12.07,13.84,24.14,20.76,36.22
			C197,318.33,197.53,319.25,198.06,320.16z M247.92,292.42c-0.17-0.01-0.26-0.02-0.36-0.02c-11.29,0-22.58,0-33.87-0.01
			c-0.36,0-0.53,0.15-0.71,0.41c-2.12,3.19-4.27,6.36-6.36,9.57c-4.05,6.22-4.88,12.97-3.23,20.11c0.4,1.73,1.11,3.33,2.28,4.7
			c1.75,2.04,4.07,2.66,6.64,2.66c11.65,0,23.29,0,34.94,0c0.21,0,0.42,0,0.66,0C247.92,317.32,247.92,304.9,247.92,292.42z
			 M196.42,230.92c10.26,6.87,20.48,13.72,30.69,20.56c0.1-0.12,0.15-0.17,0.2-0.24c6.1-9.44,12.19-18.88,18.27-28.33
			c0.11-0.18,0.11-0.53,0.01-0.73c-1.6-3.19-3.12-6.43-4.86-9.53c-2.16-3.86-4.79-7.39-8.21-10.28c-3.72-3.14-7.93-4.24-12.7-3.25
			c-2.72,0.56-4.78,1.92-6.25,4.35c-3.35,5.52-6.82,10.96-10.25,16.43C201.04,223.55,198.75,227.2,196.42,230.92z"/>
		<path class="st4" d="M274.32,340.79c-0.98-0.43-1.67-1.18-2.24-2.05c-3.46-5.29-6.91-10.58-10.36-15.88
			c-2.23-3.42-4.46-6.85-6.7-10.27c-0.2-0.3-0.21-0.52-0.03-0.84c5.35-9.26,10.69-18.53,16.04-27.8c0.11-0.19,0.23-0.37,0.37-0.53
			c0.89-0.95,2.29-0.65,2.65,0.59c0.15,0.51,0.23,1.05,0.24,1.57c0.03,1.7,0.02,3.4,0.02,5.1c0,0.21,0,0.43,0,0.67
			c0.21,0.02,0.36,0.05,0.51,0.05c9.12-0.01,18.23-0.01,27.35-0.05c3.52-0.01,7.03-0.28,10.46-1.14c3.99-0.99,7.37-3.07,10.36-5.84
			c0.74-0.69,1.48-1.37,2.12-1.97c0.02-0.05-0.01,0.06-0.07,0.15c-7.61,13.83-15.24,27.66-22.83,41.5
			c-2.03,3.71-5.17,5.64-9.31,6.04c-0.88,0.08-1.78,0.11-2.66,0.11c-4.33,0.01-8.66,0.01-12.99,0.01c-0.21,0-0.43,0-0.69,0
			c0,0.45,0,0.84,0,1.23c0,2.37,0,4.75,0,7.12c0,1.35-0.18,1.62-1.45,2.1c-0.07,0.03-0.13,0.07-0.2,0.11
			C274.71,340.79,274.51,340.79,274.32,340.79z"/>
		<path class="st4" d="M325.46,271.38c-0.33,1.11-0.56,2.26-1,3.32c-0.84,2.02-2.26,3.65-3.87,5.11c-2.07,1.88-4.3,3.54-6.86,4.71
			c-2.05,0.94-4.19,1.47-6.47,1.47c-4.92-0.02-9.85-0.01-14.77,0c-0.34,0-0.57-0.06-0.77-0.39c-5.99-9.92-11.98-19.83-17.98-29.75
			c-0.06-0.1-0.11-0.21-0.21-0.38c10.56-6.14,21.12-12.28,31.71-18.44c0.14,0.21,0.26,0.38,0.38,0.56
			c5.96,9.1,11.91,18.21,17.89,27.3c0.93,1.42,1.6,2.93,1.93,4.59C325.46,270.11,325.46,270.74,325.46,271.38z"/>
		<path class="st4" d="M226.95,194.62c0.2,0,0.39,0,0.59,0c13.47,0,26.93,0,40.4,0c3.32,0,6.58,0.34,9.72,1.5
			c3.85,1.42,6.69,3.94,8.53,7.62c2.08,4.17,4.19,8.32,6.28,12.48c0.1,0.19,0.2,0.38,0.32,0.62c0.95-0.43,1.87-0.86,2.8-1.27
			c1.93-0.85,3.86-1.69,5.8-2.52c0.68-0.29,1.2-0.03,1.39,0.7c0.31,1.18,0.13,2.34-0.45,3.39c-1.06,1.94-2.21,3.83-3.33,5.73
			c-4.2,7.08-8.41,14.15-12.6,21.24c-0.22,0.38-0.45,0.51-0.88,0.47c-3.29-0.28-6.58-0.54-9.87-0.8c-2.66-0.21-5.32-0.42-7.98-0.63
			c-3.29-0.26-6.58-0.53-9.87-0.79c-1.61-0.13-3.23-0.25-4.84-0.4c-1.39-0.13-2.03-1.05-1.67-2.33c0.16-0.57,0.59-0.86,1.08-1.09
			c1.75-0.82,3.49-1.66,5.24-2.49c0.21-0.1,0.42-0.21,0.68-0.34c-0.67-1.4-1.33-2.79-1.99-4.17c-2.6-5.42-5.17-10.86-7.83-16.26
			c-1.89-3.85-4.13-7.5-6.68-10.96c-2.93-3.96-6.59-6.89-11.32-8.39c-1.18-0.37-2.35-0.8-3.52-1.21
			C226.95,194.67,226.95,194.64,226.95,194.62z"/>
		<path class="st4" d="M198.06,320.16c-0.53-0.92-1.06-1.83-1.58-2.75c-6.92-12.07-13.84-24.14-20.76-36.22
			c-0.97-1.69-1.75-3.44-2.04-5.39c-0.31-2.13,0.23-4.12,1.22-5.93c1.43-2.61,3.02-5.13,4.59-7.66c1.44-2.31,2.94-4.59,4.44-6.92
			c-0.15-0.11-0.29-0.21-0.43-0.3c-2.03-1.23-4.06-2.45-6.08-3.68c-0.29-0.17-0.57-0.36-0.84-0.55c-0.95-0.67-1.09-1.03-0.83-1.98
			c0.23-0.79,0.89-1.31,1.8-1.38c0.57-0.04,1.14-0.07,1.72-0.09c5.77-0.14,11.54-0.26,17.32-0.4c4.64-0.11,9.29-0.22,13.93-0.36
			c0.46-0.01,0.69,0.11,0.91,0.52c4.85,9.13,9.72,18.25,14.55,27.39c0.42,0.79,0.67,1.68,0.92,2.54c0.16,0.55,0,1.09-0.53,1.39
			c-0.51,0.29-1.02,0.37-1.6,0c-2.07-1.31-4.17-2.57-6.29-3.86c-0.09,0.1-0.19,0.2-0.26,0.3c-5.91,9.3-11.85,18.58-17.71,27.91
			c-2.34,3.73-3.35,7.86-3.04,12.27c0.12,1.61,0.43,3.21,0.65,4.81c0.01,0.1,0.02,0.19,0.03,0.29
			C198.11,320.14,198.08,320.15,198.06,320.16z"/>
		<path class="st4" d="M247.92,292.42c0,12.48,0,24.9,0,37.41c-0.24,0-0.45,0-0.66,0c-11.65,0-23.29,0-34.94,0
			c-2.57,0-4.89-0.62-6.64-2.66c-1.17-1.36-1.88-2.97-2.28-4.7c-1.65-7.13-0.82-13.89,3.23-20.11c2.09-3.21,4.24-6.38,6.36-9.57
			c0.17-0.26,0.35-0.41,0.71-0.41c11.29,0.01,22.58,0.01,33.87,0.01C247.65,292.4,247.75,292.41,247.92,292.42z"/>
		<path class="st4" d="M196.42,230.92c2.33-3.72,4.62-7.37,6.9-11.02c3.43-5.47,6.9-10.92,10.25-16.43
			c1.47-2.43,3.53-3.78,6.25-4.35c4.78-0.99,8.99,0.11,12.7,3.25c3.41,2.89,6.04,6.42,8.21,10.28c1.74,3.11,3.27,6.34,4.86,9.53
			c0.1,0.2,0.1,0.55-0.01,0.73c-6.08,9.45-12.17,18.89-18.27,28.33c-0.04,0.07-0.1,0.12-0.2,0.24
			C216.9,244.64,206.68,237.79,196.42,230.92z"/>
	</g>
	<text transform="matrix(1 0 0 1 132.4062 406.4975)" class="st5 st6 st7">METALL</text>
</g>
<g id="Lager_2">
	<g>
		<path class="st8" d="M410.3,460.49H88.75c-10.11,0-18.64-7.55-19.85-17.59l-35.15-290c-1.44-11.91,7.85-22.41,19.85-22.41h391.86
			c12,0,21.3,10.49,19.85,22.41l-35.15,290C428.94,452.94,420.42,460.49,410.3,460.49z"/>
	</g>
	<g>
		<path class="st9" d="M35.81,169.94l-2.07-17.04c-1.44-11.91,7.85-22.41,19.85-22.41h391.86c12,0,21.3,10.49,19.85,22.41
			L463.23,170L35.81,169.94z"/>
	</g>
	<g>
		<path class="st8" d="M462.02,155.49h-425c-11.05,0-20-8.95-20-20v-75c0-11.05,8.95-20,20-20h425c11.05,0,20,8.95,20,20v75
			C482.02,146.53,473.07,155.49,462.02,155.49z"/>
	</g>
	<g>
		<path class="st10" d="M226.95,194.62c0,0.03,0,0.06,0.01,0.09c1.17,0.4,2.34,0.83,3.52,1.21c4.74,1.5,8.4,4.43,11.32,8.39
			c2.55,3.46,4.79,7.11,6.68,10.96c2.65,5.4,5.22,10.84,7.83,16.26c0.66,1.38,1.32,2.77,1.99,4.17c-0.26,0.13-0.47,0.24-0.68,0.34
			c-1.75,0.83-3.49,1.66-5.24,2.49c-0.5,0.23-0.92,0.52-1.08,1.09c-0.36,1.28,0.28,2.21,1.67,2.33c1.61,0.15,3.23,0.27,4.84,0.4
			c3.29,0.27,6.58,0.53,9.87,0.79c2.66,0.21,5.32,0.42,7.98,0.63c3.29,0.26,6.58,0.52,9.87,0.8c0.43,0.04,0.66-0.09,0.88-0.47
			c4.19-7.09,8.4-14.16,12.6-21.24c1.13-1.9,2.27-3.8,3.33-5.73c0.57-1.04,0.76-2.2,0.45-3.39c-0.19-0.73-0.71-0.99-1.39-0.7
			c-1.94,0.82-3.87,1.67-5.8,2.52c-0.93,0.41-1.86,0.84-2.8,1.27c-0.13-0.24-0.23-0.43-0.32-0.62c-2.09-4.16-4.2-8.31-6.28-12.48
			c-1.84-3.68-4.68-6.2-8.53-7.62c-3.14-1.16-6.4-1.5-9.72-1.5c-13.47,0-26.93,0-40.4,0C227.34,194.62,227.14,194.62,226.95,194.62z
			 M198.06,320.16c0.02-0.01,0.05-0.02,0.07-0.03c-0.01-0.1-0.01-0.19-0.03-0.29c-0.22-1.6-0.53-3.2-0.65-4.81
			c-0.32-4.41,0.7-8.54,3.04-12.27c5.86-9.33,11.8-18.61,17.71-27.91c0.07-0.11,0.17-0.2,0.26-0.3c2.12,1.3,4.22,2.55,6.29,3.86
			c0.58,0.37,1.09,0.3,1.6,0c0.53-0.3,0.69-0.85,0.53-1.39c-0.25-0.86-0.5-1.75-0.92-2.54c-4.84-9.14-9.71-18.26-14.55-27.39
			c-0.22-0.41-0.45-0.54-0.91-0.52c-4.64,0.13-9.29,0.25-13.93,0.36c-5.77,0.14-11.54,0.26-17.32,0.4
			c-0.57,0.01-1.15,0.04-1.72,0.09c-0.91,0.07-1.58,0.59-1.8,1.38c-0.27,0.94-0.12,1.3,0.83,1.98c0.27,0.19,0.56,0.38,0.84,0.55
			c2.03,1.23,4.06,2.45,6.08,3.68c0.14,0.09,0.28,0.19,0.43,0.3c-1.5,2.33-3,4.61-4.44,6.92c-1.57,2.53-3.16,5.05-4.59,7.66
			c-0.99,1.81-1.53,3.8-1.22,5.93c0.29,1.95,1.07,3.7,2.04,5.39c6.92,12.07,13.84,24.14,20.76,36.22
			C197,318.33,197.53,319.25,198.06,320.16z M247.92,292.42c-0.17-0.01-0.26-0.02-0.36-0.02c-11.29,0-22.58,0-33.87-0.01
			c-0.36,0-0.53,0.15-0.71,0.41c-2.12,3.19-4.27,6.36-6.36,9.57c-4.05,6.22-4.88,12.97-3.23,20.11c0.4,1.73,1.11,3.33,2.28,4.7
			c1.75,2.04,4.07,2.66,6.64,2.66c11.65,0,23.29,0,34.94,0c0.21,0,0.42,0,0.66,0C247.92,317.32,247.92,304.9,247.92,292.42z
			 M196.42,230.92c10.26,6.87,20.48,13.72,30.69,20.56c0.1-0.12,0.15-0.17,0.2-0.24c6.1-9.44,12.19-18.88,18.27-28.33
			c0.11-0.18,0.11-0.53,0.01-0.73c-1.6-3.19-3.12-6.43-4.86-9.53c-2.16-3.86-4.79-7.39-8.21-10.28c-3.72-3.14-7.93-4.24-12.7-3.25
			c-2.72,0.56-4.78,1.92-6.25,4.35c-3.35,5.52-6.82,10.96-10.25,16.43C201.04,223.55,198.75,227.2,196.42,230.92z"/>
		<path class="st10" d="M274.32,340.79c-0.98-0.43-1.67-1.18-2.24-2.05c-3.46-5.29-6.91-10.58-10.36-15.88
			c-2.23-3.42-4.46-6.85-6.7-10.27c-0.2-0.3-0.21-0.52-0.03-0.84c5.35-9.26,10.69-18.53,16.04-27.8c0.11-0.19,0.23-0.37,0.37-0.53
			c0.89-0.95,2.29-0.65,2.65,0.59c0.15,0.51,0.23,1.05,0.24,1.57c0.03,1.7,0.02,3.4,0.02,5.1c0,0.21,0,0.43,0,0.67
			c0.21,0.02,0.36,0.05,0.51,0.05c9.12-0.01,18.23-0.01,27.35-0.05c3.52-0.01,7.03-0.28,10.46-1.14c3.99-0.99,7.37-3.07,10.36-5.84
			c0.74-0.69,1.48-1.37,2.12-1.97c0.02-0.05-0.01,0.06-0.07,0.15c-7.61,13.83-15.24,27.66-22.83,41.5
			c-2.03,3.71-5.17,5.64-9.31,6.04c-0.88,0.08-1.78,0.11-2.66,0.11c-4.33,0.01-8.66,0.01-12.99,0.01c-0.21,0-0.43,0-0.69,0
			c0,0.45,0,0.84,0,1.23c0,2.37,0,4.75,0,7.12c0,1.35-0.18,1.62-1.45,2.1c-0.07,0.03-0.13,0.07-0.2,0.11
			C274.71,340.79,274.51,340.79,274.32,340.79z"/>
		<path class="st10" d="M325.46,271.38c-0.33,1.11-0.56,2.26-1,3.32c-0.84,2.02-2.26,3.65-3.87,5.11c-2.07,1.88-4.3,3.54-6.86,4.71
			c-2.05,0.94-4.19,1.47-6.47,1.47c-4.92-0.02-9.85-0.01-14.77,0c-0.34,0-0.57-0.06-0.77-0.39c-5.99-9.92-11.98-19.83-17.98-29.75
			c-0.06-0.1-0.11-0.21-0.21-0.38c10.56-6.14,21.12-12.28,31.71-18.44c0.14,0.21,0.26,0.38,0.38,0.56
			c5.96,9.1,11.91,18.21,17.89,27.3c0.93,1.42,1.6,2.93,1.93,4.59C325.46,270.11,325.46,270.74,325.46,271.38z"/>
		<path class="st10" d="M226.95,194.62c0.2,0,0.39,0,0.59,0c13.47,0,26.93,0,40.4,0c3.32,0,6.58,0.34,9.72,1.5
			c3.85,1.42,6.69,3.94,8.53,7.62c2.08,4.17,4.19,8.32,6.28,12.48c0.1,0.19,0.2,0.38,0.32,0.62c0.95-0.43,1.87-0.86,2.8-1.27
			c1.93-0.85,3.86-1.69,5.8-2.52c0.68-0.29,1.2-0.03,1.39,0.7c0.31,1.18,0.13,2.34-0.45,3.39c-1.06,1.94-2.21,3.83-3.33,5.73
			c-4.2,7.08-8.41,14.15-12.6,21.24c-0.22,0.38-0.45,0.51-0.88,0.47c-3.29-0.28-6.58-0.54-9.87-0.8c-2.66-0.21-5.32-0.42-7.98-0.63
			c-3.29-0.26-6.58-0.53-9.87-0.79c-1.61-0.13-3.23-0.25-4.84-0.4c-1.39-0.13-2.03-1.05-1.67-2.33c0.16-0.57,0.59-0.86,1.08-1.09
			c1.75-0.82,3.49-1.66,5.24-2.49c0.21-0.1,0.42-0.21,0.68-0.34c-0.67-1.4-1.33-2.79-1.99-4.17c-2.6-5.42-5.17-10.86-7.83-16.26
			c-1.89-3.85-4.13-7.5-6.68-10.96c-2.93-3.96-6.59-6.89-11.32-8.39c-1.18-0.37-2.35-0.8-3.52-1.21
			C226.95,194.67,226.95,194.64,226.95,194.62z"/>
		<path class="st10" d="M198.06,320.16c-0.53-0.92-1.06-1.83-1.58-2.75c-6.92-12.07-13.84-24.14-20.76-36.22
			c-0.97-1.69-1.75-3.44-2.04-5.39c-0.31-2.13,0.23-4.12,1.22-5.93c1.43-2.61,3.02-5.13,4.59-7.66c1.44-2.31,2.94-4.59,4.44-6.92
			c-0.15-0.11-0.29-0.21-0.43-0.3c-2.03-1.23-4.06-2.45-6.08-3.68c-0.29-0.17-0.57-0.36-0.84-0.55c-0.95-0.67-1.09-1.03-0.83-1.98
			c0.23-0.79,0.89-1.31,1.8-1.38c0.57-0.04,1.14-0.07,1.72-0.09c5.77-0.14,11.54-0.26,17.32-0.4c4.64-0.11,9.29-0.22,13.93-0.36
			c0.46-0.01,0.69,0.11,0.91,0.52c4.85,9.13,9.72,18.25,14.55,27.39c0.42,0.79,0.67,1.68,0.92,2.54c0.16,0.55,0,1.09-0.53,1.39
			c-0.51,0.29-1.02,0.37-1.6,0c-2.07-1.31-4.17-2.57-6.29-3.86c-0.09,0.1-0.19,0.2-0.26,0.3c-5.91,9.3-11.85,18.58-17.71,27.91
			c-2.34,3.73-3.35,7.86-3.04,12.27c0.12,1.61,0.43,3.21,0.65,4.81c0.01,0.1,0.02,0.19,0.03,0.29
			C198.11,320.14,198.08,320.15,198.06,320.16z"/>
		<path class="st10" d="M247.92,292.42c0,12.48,0,24.9,0,37.41c-0.24,0-0.45,0-0.66,0c-11.65,0-23.29,0-34.94,0
			c-2.57,0-4.89-0.62-6.64-2.66c-1.17-1.36-1.88-2.97-2.28-4.7c-1.65-7.13-0.82-13.89,3.23-20.11c2.09-3.21,4.24-6.38,6.36-9.57
			c0.17-0.26,0.35-0.41,0.71-0.41c11.29,0.01,22.58,0.01,33.87,0.01C247.65,292.4,247.75,292.41,247.92,292.42z"/>
		<path class="st10" d="M196.42,230.92c2.33-3.72,4.62-7.37,6.9-11.02c3.43-5.47,6.9-10.92,10.25-16.43
			c1.47-2.43,3.53-3.78,6.25-4.35c4.78-0.99,8.99,0.11,12.7,3.25c3.41,2.89,6.04,6.42,8.21,10.28c1.74,3.11,3.27,6.34,4.86,9.53
			c0.1,0.2,0.1,0.55-0.01,0.73c-6.08,9.45-12.17,18.89-18.27,28.33c-0.04,0.07-0.1,0.12-0.2,0.24
			C216.9,244.64,206.68,237.79,196.42,230.92z"/>
	</g>
	<text transform="matrix(1 0 0 1 131.3716 406.4975)" class="st10 st6 st7">PAPPER</text>
</g>
<g id="Lager_3" class="st0">
	<g class="st1">
		<path class="st4" d="M410.3,460.49H88.75c-10.11,0-18.64-7.55-19.85-17.59l-35.15-290c-1.44-11.91,7.85-22.41,19.85-22.41h391.86
			c12,0,21.3,10.49,19.85,22.41l-35.15,290C428.94,452.94,420.42,460.49,410.3,460.49z"/>
	</g>
	<g class="st1">
		<path class="st11" d="M35.81,169.94l-2.07-17.04c-1.44-11.91,7.85-22.41,19.85-22.41h391.86c12,0,21.3,10.49,19.85,22.41
			L463.23,170L35.81,169.94z"/>
	</g>
	<g class="st1">
		<path class="st4" d="M462.02,155.49h-425c-11.05,0-20-8.95-20-20v-75c0-11.05,8.95-20,20-20h425c11.05,0,20,8.95,20,20v75
			C482.02,146.53,473.07,155.49,462.02,155.49z"/>
	</g>
	<g class="st1">
		<path class="st12" d="M226.95,194.62c0,0.03,0,0.06,0.01,0.09c1.17,0.4,2.34,0.83,3.52,1.21c4.74,1.5,8.4,4.43,11.32,8.39
			c2.55,3.46,4.79,7.11,6.68,10.96c2.65,5.4,5.22,10.84,7.83,16.26c0.66,1.38,1.32,2.77,1.99,4.17c-0.26,0.13-0.47,0.24-0.68,0.34
			c-1.75,0.83-3.49,1.66-5.24,2.49c-0.5,0.23-0.92,0.52-1.08,1.09c-0.36,1.28,0.28,2.21,1.67,2.33c1.61,0.15,3.23,0.27,4.84,0.4
			c3.29,0.27,6.58,0.53,9.87,0.79c2.66,0.21,5.32,0.42,7.98,0.63c3.29,0.26,6.58,0.52,9.87,0.8c0.43,0.04,0.66-0.09,0.88-0.47
			c4.19-7.09,8.4-14.16,12.6-21.24c1.13-1.9,2.27-3.8,3.33-5.73c0.57-1.04,0.76-2.2,0.45-3.39c-0.19-0.73-0.71-0.99-1.39-0.7
			c-1.94,0.82-3.87,1.67-5.8,2.52c-0.93,0.41-1.86,0.84-2.8,1.27c-0.13-0.24-0.23-0.43-0.32-0.62c-2.09-4.16-4.2-8.31-6.28-12.48
			c-1.84-3.68-4.68-6.2-8.53-7.62c-3.14-1.16-6.4-1.5-9.72-1.5c-13.47,0-26.93,0-40.4,0C227.34,194.62,227.14,194.62,226.95,194.62z
			 M198.06,320.16c0.02-0.01,0.05-0.02,0.07-0.03c-0.01-0.1-0.01-0.19-0.03-0.29c-0.22-1.6-0.53-3.2-0.65-4.81
			c-0.32-4.41,0.7-8.54,3.04-12.27c5.86-9.33,11.8-18.61,17.71-27.91c0.07-0.11,0.17-0.2,0.26-0.3c2.12,1.3,4.22,2.55,6.29,3.86
			c0.58,0.37,1.09,0.3,1.6,0c0.53-0.3,0.69-0.85,0.53-1.39c-0.25-0.86-0.5-1.75-0.92-2.54c-4.84-9.14-9.71-18.26-14.55-27.39
			c-0.22-0.41-0.45-0.54-0.91-0.52c-4.64,0.13-9.29,0.25-13.93,0.36c-5.77,0.14-11.54,0.26-17.32,0.4
			c-0.57,0.01-1.15,0.04-1.72,0.09c-0.91,0.07-1.58,0.59-1.8,1.38c-0.27,0.94-0.12,1.3,0.83,1.98c0.27,0.19,0.56,0.38,0.84,0.55
			c2.03,1.23,4.06,2.45,6.08,3.68c0.14,0.09,0.28,0.19,0.43,0.3c-1.5,2.33-3,4.61-4.44,6.92c-1.57,2.53-3.16,5.05-4.59,7.66
			c-0.99,1.81-1.53,3.8-1.22,5.93c0.29,1.95,1.07,3.7,2.04,5.39c6.92,12.07,13.84,24.14,20.76,36.22
			C197,318.33,197.53,319.25,198.06,320.16z M247.92,292.42c-0.17-0.01-0.26-0.02-0.36-0.02c-11.29,0-22.58,0-33.87-0.01
			c-0.36,0-0.53,0.15-0.71,0.41c-2.12,3.19-4.27,6.36-6.36,9.57c-4.05,6.22-4.88,12.97-3.23,20.11c0.4,1.73,1.11,3.33,2.28,4.7
			c1.75,2.04,4.07,2.66,6.64,2.66c11.65,0,23.29,0,34.94,0c0.21,0,0.42,0,0.66,0C247.92,317.32,247.92,304.9,247.92,292.42z
			 M196.42,230.92c10.26,6.87,20.48,13.72,30.69,20.56c0.1-0.12,0.15-0.17,0.2-0.24c6.1-9.44,12.19-18.88,18.27-28.33
			c0.11-0.18,0.11-0.53,0.01-0.73c-1.6-3.19-3.12-6.43-4.86-9.53c-2.16-3.86-4.79-7.39-8.21-10.28c-3.72-3.14-7.93-4.24-12.7-3.25
			c-2.72,0.56-4.78,1.92-6.25,4.35c-3.35,5.52-6.82,10.96-10.25,16.43C201.04,223.55,198.75,227.2,196.42,230.92z"/>
		<path class="st12" d="M274.32,340.79c-0.98-0.43-1.67-1.18-2.24-2.05c-3.46-5.29-6.91-10.58-10.36-15.88
			c-2.23-3.42-4.46-6.85-6.7-10.27c-0.2-0.3-0.21-0.52-0.03-0.84c5.35-9.26,10.69-18.53,16.04-27.8c0.11-0.19,0.23-0.37,0.37-0.53
			c0.89-0.95,2.29-0.65,2.65,0.59c0.15,0.51,0.23,1.05,0.24,1.57c0.03,1.7,0.02,3.4,0.02,5.1c0,0.21,0,0.43,0,0.67
			c0.21,0.02,0.36,0.05,0.51,0.05c9.12-0.01,18.23-0.01,27.35-0.05c3.52-0.01,7.03-0.28,10.46-1.14c3.99-0.99,7.37-3.07,10.36-5.84
			c0.74-0.69,1.48-1.37,2.12-1.97c0.02-0.05-0.01,0.06-0.07,0.15c-7.61,13.83-15.24,27.66-22.83,41.5
			c-2.03,3.71-5.17,5.64-9.31,6.04c-0.88,0.08-1.78,0.11-2.66,0.11c-4.33,0.01-8.66,0.01-12.99,0.01c-0.21,0-0.43,0-0.69,0
			c0,0.45,0,0.84,0,1.23c0,2.37,0,4.75,0,7.12c0,1.35-0.18,1.62-1.45,2.1c-0.07,0.03-0.13,0.07-0.2,0.11
			C274.71,340.79,274.51,340.79,274.32,340.79z"/>
		<path class="st12" d="M325.46,271.38c-0.33,1.11-0.56,2.26-1,3.32c-0.84,2.02-2.26,3.65-3.87,5.11c-2.07,1.88-4.3,3.54-6.86,4.71
			c-2.05,0.94-4.19,1.47-6.47,1.47c-4.92-0.02-9.85-0.01-14.77,0c-0.34,0-0.57-0.06-0.77-0.39c-5.99-9.92-11.98-19.83-17.98-29.75
			c-0.06-0.1-0.11-0.21-0.21-0.38c10.56-6.14,21.12-12.28,31.71-18.44c0.14,0.21,0.26,0.38,0.38,0.56
			c5.96,9.1,11.91,18.21,17.89,27.3c0.93,1.42,1.6,2.93,1.93,4.59C325.46,270.11,325.46,270.74,325.46,271.38z"/>
		<path class="st12" d="M226.95,194.62c0.2,0,0.39,0,0.59,0c13.47,0,26.93,0,40.4,0c3.32,0,6.58,0.34,9.72,1.5
			c3.85,1.42,6.69,3.94,8.53,7.62c2.08,4.17,4.19,8.32,6.28,12.48c0.1,0.19,0.2,0.38,0.32,0.62c0.95-0.43,1.87-0.86,2.8-1.27
			c1.93-0.85,3.86-1.69,5.8-2.52c0.68-0.29,1.2-0.03,1.39,0.7c0.31,1.18,0.13,2.34-0.45,3.39c-1.06,1.94-2.21,3.83-3.33,5.73
			c-4.2,7.08-8.41,14.15-12.6,21.24c-0.22,0.38-0.45,0.51-0.88,0.47c-3.29-0.28-6.58-0.54-9.87-0.8c-2.66-0.21-5.32-0.42-7.98-0.63
			c-3.29-0.26-6.58-0.53-9.87-0.79c-1.61-0.13-3.23-0.25-4.84-0.4c-1.39-0.13-2.03-1.05-1.67-2.33c0.16-0.57,0.59-0.86,1.08-1.09
			c1.75-0.82,3.49-1.66,5.24-2.49c0.21-0.1,0.42-0.21,0.68-0.34c-0.67-1.4-1.33-2.79-1.99-4.17c-2.6-5.42-5.17-10.86-7.83-16.26
			c-1.89-3.85-4.13-7.5-6.68-10.96c-2.93-3.96-6.59-6.89-11.32-8.39c-1.18-0.37-2.35-0.8-3.52-1.21
			C226.95,194.67,226.95,194.64,226.95,194.62z"/>
		<path class="st12" d="M198.06,320.16c-0.53-0.92-1.06-1.83-1.58-2.75c-6.92-12.07-13.84-24.14-20.76-36.22
			c-0.97-1.69-1.75-3.44-2.04-5.39c-0.31-2.13,0.23-4.12,1.22-5.93c1.43-2.61,3.02-5.13,4.59-7.66c1.44-2.31,2.94-4.59,4.44-6.92
			c-0.15-0.11-0.29-0.21-0.43-0.3c-2.03-1.23-4.06-2.45-6.08-3.68c-0.29-0.17-0.57-0.36-0.84-0.55c-0.95-0.67-1.09-1.03-0.83-1.98
			c0.23-0.79,0.89-1.31,1.8-1.38c0.57-0.04,1.14-0.07,1.72-0.09c5.77-0.14,11.54-0.26,17.32-0.4c4.64-0.11,9.29-0.22,13.93-0.36
			c0.46-0.01,0.69,0.11,0.91,0.52c4.85,9.13,9.72,18.25,14.55,27.39c0.42,0.79,0.67,1.68,0.92,2.54c0.16,0.55,0,1.09-0.53,1.39
			c-0.51,0.29-1.02,0.37-1.6,0c-2.07-1.31-4.17-2.57-6.29-3.86c-0.09,0.1-0.19,0.2-0.26,0.3c-5.91,9.3-11.85,18.58-17.71,27.91
			c-2.34,3.73-3.35,7.86-3.04,12.27c0.12,1.61,0.43,3.21,0.65,4.81c0.01,0.1,0.02,0.19,0.03,0.29
			C198.11,320.14,198.08,320.15,198.06,320.16z"/>
		<path class="st12" d="M247.92,292.42c0,12.48,0,24.9,0,37.41c-0.24,0-0.45,0-0.66,0c-11.65,0-23.29,0-34.94,0
			c-2.57,0-4.89-0.62-6.64-2.66c-1.17-1.36-1.88-2.97-2.28-4.7c-1.65-7.13-0.82-13.89,3.23-20.11c2.09-3.21,4.24-6.38,6.36-9.57
			c0.17-0.26,0.35-0.41,0.71-0.41c11.29,0.01,22.58,0.01,33.87,0.01C247.65,292.4,247.75,292.41,247.92,292.42z"/>
		<path class="st12" d="M196.42,230.92c2.33-3.72,4.62-7.37,6.9-11.02c3.43-5.47,6.9-10.92,10.25-16.43
			c1.47-2.43,3.53-3.78,6.25-4.35c4.78-0.99,8.99,0.11,12.7,3.25c3.41,2.89,6.04,6.42,8.21,10.28c1.74,3.11,3.27,6.34,4.86,9.53
			c0.1,0.2,0.1,0.55-0.01,0.73c-6.08,9.45-12.17,18.89-18.27,28.33c-0.04,0.07-0.1,0.12-0.2,0.24
			C216.9,244.64,206.68,237.79,196.42,230.92z"/>
	</g>
	<text transform="matrix(1 0 0 1 170.2861 406.4975)" class="st1"><tspan x="0" y="0" class="st12 st6 st7">G</tspan><tspan x="42.94" y="0" class="st12 st6 st7">L</tspan><tspan x="77.2" y="0" class="st12 st6 st7">AS</tspan></text>
</g>
<g id="Lager_4" class="st0">
	<g class="st1">
		<path class="st12" d="M410.3,460.49H88.75c-10.11,0-18.64-7.55-19.85-17.59l-35.15-290c-1.44-11.91,7.85-22.41,19.85-22.41h391.86
			c12,0,21.3,10.49,19.85,22.41l-35.15,290C428.94,452.94,420.42,460.49,410.3,460.49z"/>
	</g>
	<g class="st1">
		<path class="st13" d="M35.81,169.94l-2.07-17.04c-1.44-11.91,7.85-22.41,19.85-22.41h391.86c12,0,21.3,10.49,19.85,22.41
			L463.23,170L35.81,169.94z"/>
	</g>
	<g class="st1">
		<path class="st12" d="M462.02,155.49h-425c-11.05,0-20-8.95-20-20v-75c0-11.05,8.95-20,20-20h425c11.05,0,20,8.95,20,20v75
			C482.02,146.53,473.07,155.49,462.02,155.49z"/>
	</g>
	<g class="st1">
		<path class="st4" d="M226.95,194.62c0,0.03,0,0.06,0.01,0.09c1.17,0.4,2.34,0.83,3.52,1.21c4.74,1.5,8.4,4.43,11.32,8.39
			c2.55,3.46,4.79,7.11,6.68,10.96c2.65,5.4,5.22,10.84,7.83,16.26c0.66,1.38,1.32,2.77,1.99,4.17c-0.26,0.13-0.47,0.24-0.68,0.34
			c-1.75,0.83-3.49,1.66-5.24,2.49c-0.5,0.23-0.92,0.52-1.08,1.09c-0.36,1.28,0.28,2.21,1.67,2.33c1.61,0.15,3.23,0.27,4.84,0.4
			c3.29,0.27,6.58,0.53,9.87,0.79c2.66,0.21,5.32,0.42,7.98,0.63c3.29,0.26,6.58,0.52,9.87,0.8c0.43,0.04,0.66-0.09,0.88-0.47
			c4.19-7.09,8.4-14.16,12.6-21.24c1.13-1.9,2.27-3.8,3.33-5.73c0.57-1.04,0.76-2.2,0.45-3.39c-0.19-0.73-0.71-0.99-1.39-0.7
			c-1.94,0.82-3.87,1.67-5.8,2.52c-0.93,0.41-1.86,0.84-2.8,1.27c-0.13-0.24-0.23-0.43-0.32-0.62c-2.09-4.16-4.2-8.31-6.28-12.48
			c-1.84-3.68-4.68-6.2-8.53-7.62c-3.14-1.16-6.4-1.5-9.72-1.5c-13.47,0-26.93,0-40.4,0C227.34,194.62,227.14,194.62,226.95,194.62z
			 M198.06,320.16c0.02-0.01,0.05-0.02,0.07-0.03c-0.01-0.1-0.01-0.19-0.03-0.29c-0.22-1.6-0.53-3.2-0.65-4.81
			c-0.32-4.41,0.7-8.54,3.04-12.27c5.86-9.33,11.8-18.61,17.71-27.91c0.07-0.11,0.17-0.2,0.26-0.3c2.12,1.3,4.22,2.55,6.29,3.86
			c0.58,0.37,1.09,0.3,1.6,0c0.53-0.3,0.69-0.85,0.53-1.39c-0.25-0.86-0.5-1.75-0.92-2.54c-4.84-9.14-9.71-18.26-14.55-27.39
			c-0.22-0.41-0.45-0.54-0.91-0.52c-4.64,0.13-9.29,0.25-13.93,0.36c-5.77,0.14-11.54,0.26-17.32,0.4
			c-0.57,0.01-1.15,0.04-1.72,0.09c-0.91,0.07-1.58,0.59-1.8,1.38c-0.27,0.94-0.12,1.3,0.83,1.98c0.27,0.19,0.56,0.38,0.84,0.55
			c2.03,1.23,4.06,2.45,6.08,3.68c0.14,0.09,0.28,0.19,0.43,0.3c-1.5,2.33-3,4.61-4.44,6.92c-1.57,2.53-3.16,5.05-4.59,7.66
			c-0.99,1.81-1.53,3.8-1.22,5.93c0.29,1.95,1.07,3.7,2.04,5.39c6.92,12.07,13.84,24.14,20.76,36.22
			C197,318.33,197.53,319.25,198.06,320.16z M247.92,292.42c-0.17-0.01-0.26-0.02-0.36-0.02c-11.29,0-22.58,0-33.87-0.01
			c-0.36,0-0.53,0.15-0.71,0.41c-2.12,3.19-4.27,6.36-6.36,9.57c-4.05,6.22-4.88,12.97-3.23,20.11c0.4,1.73,1.11,3.33,2.28,4.7
			c1.75,2.04,4.07,2.66,6.64,2.66c11.65,0,23.29,0,34.94,0c0.21,0,0.42,0,0.66,0C247.92,317.32,247.92,304.9,247.92,292.42z
			 M196.42,230.92c10.26,6.87,20.48,13.72,30.69,20.56c0.1-0.12,0.15-0.17,0.2-0.24c6.1-9.44,12.19-18.88,18.27-28.33
			c0.11-0.18,0.11-0.53,0.01-0.73c-1.6-3.19-3.12-6.43-4.86-9.53c-2.16-3.86-4.79-7.39-8.21-10.28c-3.72-3.14-7.93-4.24-12.7-3.25
			c-2.72,0.56-4.78,1.92-6.25,4.35c-3.35,5.52-6.82,10.96-10.25,16.43C201.04,223.55,198.75,227.2,196.42,230.92z"/>
		<path class="st4" d="M274.32,340.79c-0.98-0.43-1.67-1.18-2.24-2.05c-3.46-5.29-6.91-10.58-10.36-15.88
			c-2.23-3.42-4.46-6.85-6.7-10.27c-0.2-0.3-0.21-0.52-0.03-0.84c5.35-9.26,10.69-18.53,16.04-27.8c0.11-0.19,0.23-0.37,0.37-0.53
			c0.89-0.95,2.29-0.65,2.65,0.59c0.15,0.51,0.23,1.05,0.24,1.57c0.03,1.7,0.02,3.4,0.02,5.1c0,0.21,0,0.43,0,0.67
			c0.21,0.02,0.36,0.05,0.51,0.05c9.12-0.01,18.23-0.01,27.35-0.05c3.52-0.01,7.03-0.28,10.46-1.14c3.99-0.99,7.37-3.07,10.36-5.84
			c0.74-0.69,1.48-1.37,2.12-1.97c0.02-0.05-0.01,0.06-0.07,0.15c-7.61,13.83-15.24,27.66-22.83,41.5
			c-2.03,3.71-5.17,5.64-9.31,6.04c-0.88,0.08-1.78,0.11-2.66,0.11c-4.33,0.01-8.66,0.01-12.99,0.01c-0.21,0-0.43,0-0.69,0
			c0,0.45,0,0.84,0,1.23c0,2.37,0,4.75,0,7.12c0,1.35-0.18,1.62-1.45,2.1c-0.07,0.03-0.13,0.07-0.2,0.11
			C274.71,340.79,274.51,340.79,274.32,340.79z"/>
		<path class="st4" d="M325.46,271.38c-0.33,1.11-0.56,2.26-1,3.32c-0.84,2.02-2.26,3.65-3.87,5.11c-2.07,1.88-4.3,3.54-6.86,4.71
			c-2.05,0.94-4.19,1.47-6.47,1.47c-4.92-0.02-9.85-0.01-14.77,0c-0.34,0-0.57-0.06-0.77-0.39c-5.99-9.92-11.98-19.83-17.98-29.75
			c-0.06-0.1-0.11-0.21-0.21-0.38c10.56-6.14,21.12-12.28,31.71-18.44c0.14,0.21,0.26,0.38,0.38,0.56
			c5.96,9.1,11.91,18.21,17.89,27.3c0.93,1.42,1.6,2.93,1.93,4.59C325.46,270.11,325.46,270.74,325.46,271.38z"/>
		<path class="st4" d="M226.95,194.62c0.2,0,0.39,0,0.59,0c13.47,0,26.93,0,40.4,0c3.32,0,6.58,0.34,9.72,1.5
			c3.85,1.42,6.69,3.94,8.53,7.62c2.08,4.17,4.19,8.32,6.28,12.48c0.1,0.19,0.2,0.38,0.32,0.62c0.95-0.43,1.87-0.86,2.8-1.27
			c1.93-0.85,3.86-1.69,5.8-2.52c0.68-0.29,1.2-0.03,1.39,0.7c0.31,1.18,0.13,2.34-0.45,3.39c-1.06,1.94-2.21,3.83-3.33,5.73
			c-4.2,7.08-8.41,14.15-12.6,21.24c-0.22,0.38-0.45,0.51-0.88,0.47c-3.29-0.28-6.58-0.54-9.87-0.8c-2.66-0.21-5.32-0.42-7.98-0.63
			c-3.29-0.26-6.58-0.53-9.87-0.79c-1.61-0.13-3.23-0.25-4.84-0.4c-1.39-0.13-2.03-1.05-1.67-2.33c0.16-0.57,0.59-0.86,1.08-1.09
			c1.75-0.82,3.49-1.66,5.24-2.49c0.21-0.1,0.42-0.21,0.68-0.34c-0.67-1.4-1.33-2.79-1.99-4.17c-2.6-5.42-5.17-10.86-7.83-16.26
			c-1.89-3.85-4.13-7.5-6.68-10.96c-2.93-3.96-6.59-6.89-11.32-8.39c-1.18-0.37-2.35-0.8-3.52-1.21
			C226.95,194.67,226.95,194.64,226.95,194.62z"/>
		<path class="st4" d="M198.06,320.16c-0.53-0.92-1.06-1.83-1.58-2.75c-6.92-12.07-13.84-24.14-20.76-36.22
			c-0.97-1.69-1.75-3.44-2.04-5.39c-0.31-2.13,0.23-4.12,1.22-5.93c1.43-2.61,3.02-5.13,4.59-7.66c1.44-2.31,2.94-4.59,4.44-6.92
			c-0.15-0.11-0.29-0.21-0.43-0.3c-2.03-1.23-4.06-2.45-6.08-3.68c-0.29-0.17-0.57-0.36-0.84-0.55c-0.95-0.67-1.09-1.03-0.83-1.98
			c0.23-0.79,0.89-1.31,1.8-1.38c0.57-0.04,1.14-0.07,1.72-0.09c5.77-0.14,11.54-0.26,17.32-0.4c4.64-0.11,9.29-0.22,13.93-0.36
			c0.46-0.01,0.69,0.11,0.91,0.52c4.85,9.13,9.72,18.25,14.55,27.39c0.42,0.79,0.67,1.68,0.92,2.54c0.16,0.55,0,1.09-0.53,1.39
			c-0.51,0.29-1.02,0.37-1.6,0c-2.07-1.31-4.17-2.57-6.29-3.86c-0.09,0.1-0.19,0.2-0.26,0.3c-5.91,9.3-11.85,18.58-17.71,27.91
			c-2.34,3.73-3.35,7.86-3.04,12.27c0.12,1.61,0.43,3.21,0.65,4.81c0.01,0.1,0.02,0.19,0.03,0.29
			C198.11,320.14,198.08,320.15,198.06,320.16z"/>
		<path class="st4" d="M247.92,292.42c0,12.48,0,24.9,0,37.41c-0.24,0-0.45,0-0.66,0c-11.65,0-23.29,0-34.94,0
			c-2.57,0-4.89-0.62-6.64-2.66c-1.17-1.36-1.88-2.97-2.28-4.7c-1.65-7.13-0.82-13.89,3.23-20.11c2.09-3.21,4.24-6.38,6.36-9.57
			c0.17-0.26,0.35-0.41,0.71-0.41c11.29,0.01,22.58,0.01,33.87,0.01C247.65,292.4,247.75,292.41,247.92,292.42z"/>
		<path class="st4" d="M196.42,230.92c2.33-3.72,4.62-7.37,6.9-11.02c3.43-5.47,6.9-10.92,10.25-16.43
			c1.47-2.43,3.53-3.78,6.25-4.35c4.78-0.99,8.99,0.11,12.7,3.25c3.41,2.89,6.04,6.42,8.21,10.28c1.74,3.11,3.27,6.34,4.86,9.53
			c0.1,0.2,0.1,0.55-0.01,0.73c-6.08,9.45-12.17,18.89-18.27,28.33c-0.04,0.07-0.1,0.12-0.2,0.24
			C216.9,244.64,206.68,237.79,196.42,230.92z"/>
	</g>
	<text transform="matrix(1 0 0 1 104.2688 406.4975)" class="st5 st6 st7">KARTONG</text>
</g>
<g id="Lager_5" class="st0">
	<g class="st1">
		<path class="st14" d="M410.3,460.49H88.75c-10.11,0-18.64-7.55-19.85-17.59l-35.15-290c-1.44-11.91,7.85-22.41,19.85-22.41h391.86
			c12,0,21.3,10.49,19.85,22.41l-35.15,290C428.94,452.94,420.42,460.49,410.3,460.49z"/>
	</g>
	<g class="st1">
		<path class="st15" d="M35.81,169.94l-2.07-17.04c-1.44-11.91,7.85-22.41,19.85-22.41h391.86c12,0,21.3,10.49,19.85,22.41
			L463.23,170L35.81,169.94z"/>
	</g>
	<g class="st1">
		<path class="st14" d="M462.02,155.49h-425c-11.05,0-20-8.95-20-20v-75c0-11.05,8.95-20,20-20h425c11.05,0,20,8.95,20,20v75
			C482.02,146.53,473.07,155.49,462.02,155.49z"/>
	</g>
	<g class="st1">
		<path class="st4" d="M226.95,194.62c0,0.03,0,0.06,0.01,0.09c1.17,0.4,2.34,0.83,3.52,1.21c4.74,1.5,8.4,4.43,11.32,8.39
			c2.55,3.46,4.79,7.11,6.68,10.96c2.65,5.4,5.22,10.84,7.83,16.26c0.66,1.38,1.32,2.77,1.99,4.17c-0.26,0.13-0.47,0.24-0.68,0.34
			c-1.75,0.83-3.49,1.66-5.24,2.49c-0.5,0.23-0.92,0.52-1.08,1.09c-0.36,1.28,0.28,2.21,1.67,2.33c1.61,0.15,3.23,0.27,4.84,0.4
			c3.29,0.27,6.58,0.53,9.87,0.79c2.66,0.21,5.32,0.42,7.98,0.63c3.29,0.26,6.58,0.52,9.87,0.8c0.43,0.04,0.66-0.09,0.88-0.47
			c4.19-7.09,8.4-14.16,12.6-21.24c1.13-1.9,2.27-3.8,3.33-5.73c0.57-1.04,0.76-2.2,0.45-3.39c-0.19-0.73-0.71-0.99-1.39-0.7
			c-1.94,0.82-3.87,1.67-5.8,2.52c-0.93,0.41-1.86,0.84-2.8,1.27c-0.13-0.24-0.23-0.43-0.32-0.62c-2.09-4.16-4.2-8.31-6.28-12.48
			c-1.84-3.68-4.68-6.2-8.53-7.62c-3.14-1.16-6.4-1.5-9.72-1.5c-13.47,0-26.93,0-40.4,0C227.34,194.62,227.14,194.62,226.95,194.62z
			 M198.06,320.16c0.02-0.01,0.05-0.02,0.07-0.03c-0.01-0.1-0.01-0.19-0.03-0.29c-0.22-1.6-0.53-3.2-0.65-4.81
			c-0.32-4.41,0.7-8.54,3.04-12.27c5.86-9.33,11.8-18.61,17.71-27.91c0.07-0.11,0.17-0.2,0.26-0.3c2.12,1.3,4.22,2.55,6.29,3.86
			c0.58,0.37,1.09,0.3,1.6,0c0.53-0.3,0.69-0.85,0.53-1.39c-0.25-0.86-0.5-1.75-0.92-2.54c-4.84-9.14-9.71-18.26-14.55-27.39
			c-0.22-0.41-0.45-0.54-0.91-0.52c-4.64,0.13-9.29,0.25-13.93,0.36c-5.77,0.14-11.54,0.26-17.32,0.4
			c-0.57,0.01-1.15,0.04-1.72,0.09c-0.91,0.07-1.58,0.59-1.8,1.38c-0.27,0.94-0.12,1.3,0.83,1.98c0.27,0.19,0.56,0.38,0.84,0.55
			c2.03,1.23,4.06,2.45,6.08,3.68c0.14,0.09,0.28,0.19,0.43,0.3c-1.5,2.33-3,4.61-4.44,6.92c-1.57,2.53-3.16,5.05-4.59,7.66
			c-0.99,1.81-1.53,3.8-1.22,5.93c0.29,1.95,1.07,3.7,2.04,5.39c6.92,12.07,13.84,24.14,20.76,36.22
			C197,318.33,197.53,319.25,198.06,320.16z M247.92,292.42c-0.17-0.01-0.26-0.02-0.36-0.02c-11.29,0-22.58,0-33.87-0.01
			c-0.36,0-0.53,0.15-0.71,0.41c-2.12,3.19-4.27,6.36-6.36,9.57c-4.05,6.22-4.88,12.97-3.23,20.11c0.4,1.73,1.11,3.33,2.28,4.7
			c1.75,2.04,4.07,2.66,6.64,2.66c11.65,0,23.29,0,34.94,0c0.21,0,0.42,0,0.66,0C247.92,317.32,247.92,304.9,247.92,292.42z
			 M196.42,230.92c10.26,6.87,20.48,13.72,30.69,20.56c0.1-0.12,0.15-0.17,0.2-0.24c6.1-9.44,12.19-18.88,18.27-28.33
			c0.11-0.18,0.11-0.53,0.01-0.73c-1.6-3.19-3.12-6.43-4.86-9.53c-2.16-3.86-4.79-7.39-8.21-10.28c-3.72-3.14-7.93-4.24-12.7-3.25
			c-2.72,0.56-4.78,1.92-6.25,4.35c-3.35,5.52-6.82,10.96-10.25,16.43C201.04,223.55,198.75,227.2,196.42,230.92z"/>
		<path class="st4" d="M274.32,340.79c-0.98-0.43-1.67-1.18-2.24-2.05c-3.46-5.29-6.91-10.58-10.36-15.88
			c-2.23-3.42-4.46-6.85-6.7-10.27c-0.2-0.3-0.21-0.52-0.03-0.84c5.35-9.26,10.69-18.53,16.04-27.8c0.11-0.19,0.23-0.37,0.37-0.53
			c0.89-0.95,2.29-0.65,2.65,0.59c0.15,0.51,0.23,1.05,0.24,1.57c0.03,1.7,0.02,3.4,0.02,5.1c0,0.21,0,0.43,0,0.67
			c0.21,0.02,0.36,0.05,0.51,0.05c9.12-0.01,18.23-0.01,27.35-0.05c3.52-0.01,7.03-0.28,10.46-1.14c3.99-0.99,7.37-3.07,10.36-5.84
			c0.74-0.69,1.48-1.37,2.12-1.97c0.02-0.05-0.01,0.06-0.07,0.15c-7.61,13.83-15.24,27.66-22.83,41.5
			c-2.03,3.71-5.17,5.64-9.31,6.04c-0.88,0.08-1.78,0.11-2.66,0.11c-4.33,0.01-8.66,0.01-12.99,0.01c-0.21,0-0.43,0-0.69,0
			c0,0.45,0,0.84,0,1.23c0,2.37,0,4.75,0,7.12c0,1.35-0.18,1.62-1.45,2.1c-0.07,0.03-0.13,0.07-0.2,0.11
			C274.71,340.79,274.51,340.79,274.32,340.79z"/>
		<path class="st4" d="M325.46,271.38c-0.33,1.11-0.56,2.26-1,3.32c-0.84,2.02-2.26,3.65-3.87,5.11c-2.07,1.88-4.3,3.54-6.86,4.71
			c-2.05,0.94-4.19,1.47-6.47,1.47c-4.92-0.02-9.85-0.01-14.77,0c-0.34,0-0.57-0.06-0.77-0.39c-5.99-9.92-11.98-19.83-17.98-29.75
			c-0.06-0.1-0.11-0.21-0.21-0.38c10.56-6.14,21.12-12.28,31.71-18.44c0.14,0.21,0.26,0.38,0.38,0.56
			c5.96,9.1,11.91,18.21,17.89,27.3c0.93,1.42,1.6,2.93,1.93,4.59C325.46,270.11,325.46,270.74,325.46,271.38z"/>
		<path class="st4" d="M226.95,194.62c0.2,0,0.39,0,0.59,0c13.47,0,26.93,0,40.4,0c3.32,0,6.58,0.34,9.72,1.5
			c3.85,1.42,6.69,3.94,8.53,7.62c2.08,4.17,4.19,8.32,6.28,12.48c0.1,0.19,0.2,0.38,0.32,0.62c0.95-0.43,1.87-0.86,2.8-1.27
			c1.93-0.85,3.86-1.69,5.8-2.52c0.68-0.29,1.2-0.03,1.39,0.7c0.31,1.18,0.13,2.34-0.45,3.39c-1.06,1.94-2.21,3.83-3.33,5.73
			c-4.2,7.08-8.41,14.15-12.6,21.24c-0.22,0.38-0.45,0.51-0.88,0.47c-3.29-0.28-6.58-0.54-9.87-0.8c-2.66-0.21-5.32-0.42-7.98-0.63
			c-3.29-0.26-6.58-0.53-9.87-0.79c-1.61-0.13-3.23-0.25-4.84-0.4c-1.39-0.13-2.03-1.05-1.67-2.33c0.16-0.57,0.59-0.86,1.08-1.09
			c1.75-0.82,3.49-1.66,5.24-2.49c0.21-0.1,0.42-0.21,0.68-0.34c-0.67-1.4-1.33-2.79-1.99-4.17c-2.6-5.42-5.17-10.86-7.83-16.26
			c-1.89-3.85-4.13-7.5-6.68-10.96c-2.93-3.96-6.59-6.89-11.32-8.39c-1.18-0.37-2.35-0.8-3.52-1.21
			C226.95,194.67,226.95,194.64,226.95,194.62z"/>
		<path class="st4" d="M198.06,320.16c-0.53-0.92-1.06-1.83-1.58-2.75c-6.92-12.07-13.84-24.14-20.76-36.22
			c-0.97-1.69-1.75-3.44-2.04-5.39c-0.31-2.13,0.23-4.12,1.22-5.93c1.43-2.61,3.02-5.13,4.59-7.66c1.44-2.31,2.94-4.59,4.44-6.92
			c-0.15-0.11-0.29-0.21-0.43-0.3c-2.03-1.23-4.06-2.45-6.08-3.68c-0.29-0.17-0.57-0.36-0.84-0.55c-0.95-0.67-1.09-1.03-0.83-1.98
			c0.23-0.79,0.89-1.31,1.8-1.38c0.57-0.04,1.14-0.07,1.72-0.09c5.77-0.14,11.54-0.26,17.32-0.4c4.64-0.11,9.29-0.22,13.93-0.36
			c0.46-0.01,0.69,0.11,0.91,0.52c4.85,9.13,9.72,18.25,14.55,27.39c0.42,0.79,0.67,1.68,0.92,2.54c0.16,0.55,0,1.09-0.53,1.39
			c-0.51,0.29-1.02,0.37-1.6,0c-2.07-1.31-4.17-2.57-6.29-3.86c-0.09,0.1-0.19,0.2-0.26,0.3c-5.91,9.3-11.85,18.58-17.71,27.91
			c-2.34,3.73-3.35,7.86-3.04,12.27c0.12,1.61,0.43,3.21,0.65,4.81c0.01,0.1,0.02,0.19,0.03,0.29
			C198.11,320.14,198.08,320.15,198.06,320.16z"/>
		<path class="st4" d="M247.92,292.42c0,12.48,0,24.9,0,37.41c-0.24,0-0.45,0-0.66,0c-11.65,0-23.29,0-34.94,0
			c-2.57,0-4.89-0.62-6.64-2.66c-1.17-1.36-1.88-2.97-2.28-4.7c-1.65-7.13-0.82-13.89,3.23-20.11c2.09-3.21,4.24-6.38,6.36-9.57
			c0.17-0.26,0.35-0.41,0.71-0.41c11.29,0.01,22.58,0.01,33.87,0.01C247.65,292.4,247.75,292.41,247.92,292.42z"/>
		<path class="st4" d="M196.42,230.92c2.33-3.72,4.62-7.37,6.9-11.02c3.43-5.47,6.9-10.92,10.25-16.43
			c1.47-2.43,3.53-3.78,6.25-4.35c4.78-0.99,8.99,0.11,12.7,3.25c3.41,2.89,6.04,6.42,8.21,10.28c1.74,3.11,3.27,6.34,4.86,9.53
			c0.1,0.2,0.1,0.55-0.01,0.73c-6.08,9.45-12.17,18.89-18.27,28.33c-0.04,0.07-0.1,0.12-0.2,0.24
			C216.9,244.64,206.68,237.79,196.42,230.92z"/>
	</g>
	<text transform="matrix(1 0 0 1 154.9963 406.4975)" class="st5 st6 st7">PLAST</text>
</g>
</svg>
