<?xml version="1.0" encoding="utf-8"?>
<!-- Generator: Adobe Illustrator 24.2.1, SVG Export Plug-In . SVG Version: 6.00 Build 0)  -->
<svg version="1.1" id="Lager_5" xmlns="http://www.w3.org/2000/svg" xmlns:xlink="http://www.w3.org/1999/xlink" x="0px" y="0px"
	 viewBox="0 0 500 500" style="enable-background:new 0 0 500 500;" xml:space="preserve">
<style type="text/css">
	.st0{fill:#223A59;}
</style>
<g>
	<path class="st0" d="M179.4,21.4c0,0.1,0,0.2,0,0.3c3.7,1.3,7.3,2.6,11,3.8c14.8,4.7,26.3,13.8,35.4,26.2c8,10.8,15,22.2,20.9,34.3
		c8.3,16.9,16.3,33.9,24.5,50.9c2.1,4.3,4.1,8.7,6.2,13c-0.8,0.4-1.5,0.7-2.1,1.1c-5.5,2.6-10.9,5.2-16.4,7.8
		c-1.6,0.7-2.9,1.6-3.4,3.4c-1.1,4,0.9,6.9,5.2,7.3c5,0.5,10.1,0.8,15.1,1.2c10.3,0.8,20.6,1.7,30.9,2.5c8.3,0.7,16.6,1.3,24.9,2
		c10.3,0.8,20.6,1.6,30.9,2.5c1.4,0.1,2.1-0.3,2.8-1.5c13.1-22.2,26.3-44.3,39.4-66.4c3.5-5.9,7.1-11.9,10.4-17.9
		c1.8-3.3,2.4-6.9,1.4-10.6c-0.6-2.3-2.2-3.1-4.3-2.2c-6.1,2.6-12.1,5.2-18.2,7.9c-2.9,1.3-5.8,2.6-8.8,4c-0.4-0.8-0.7-1.3-1-1.9
		c-6.6-13-13.1-26-19.6-39C358.9,38.4,350,30.6,338,26.1c-9.8-3.6-20-4.7-30.4-4.7c-42.1,0-84.2,0-126.3,0
		C180.6,21.4,180,21.4,179.4,21.4z M89,414.1c0.1,0,0.2-0.1,0.2-0.1c0-0.3,0-0.6-0.1-0.9c-0.7-5-1.7-10-2-15
		c-1-13.8,2.2-26.7,9.5-38.4c18.3-29.2,36.9-58.2,55.4-87.3c0.2-0.3,0.5-0.6,0.8-1c6.6,4.1,13.2,8,19.7,12.1c1.8,1.1,3.4,0.9,5,0
		c1.6-0.9,2.2-2.6,1.7-4.4c-0.8-2.7-1.6-5.5-2.9-8c-15.1-28.6-30.4-57.1-45.5-85.7c-0.7-1.3-1.4-1.7-2.8-1.6
		c-14.5,0.4-29.1,0.8-43.6,1.1c-18,0.4-36.1,0.8-54.2,1.3c-1.8,0-3.6,0.1-5.4,0.3c-2.9,0.2-4.9,1.8-5.6,4.3
		c-0.8,2.9-0.4,4.1,2.6,6.2c0.9,0.6,1.7,1.2,2.6,1.7c6.3,3.8,12.7,7.7,19,11.5c0.5,0.3,0.9,0.6,1.4,0.9c-4.7,7.3-9.4,14.4-13.9,21.6
		c-4.9,7.9-9.9,15.8-14.4,24c-3.1,5.7-4.8,11.9-3.8,18.6c0.9,6.1,3.4,11.6,6.4,16.8c21.6,37.8,43.3,75.5,64.9,113.3
		C85.7,408.3,87.4,411.2,89,414.1z M245,327.3c-0.5,0-0.8-0.1-1.1-0.1c-35.3,0-70.6,0-105.9,0c-1.1,0-1.7,0.5-2.2,1.3
		c-6.6,10-13.3,19.9-19.9,29.9c-12.7,19.4-15.3,40.6-10.1,62.9c1.3,5.4,3.5,10.4,7.1,14.7c5.5,6.4,12.7,8.3,20.8,8.3
		c36.4,0,72.8,0,109.3,0c0.7,0,1.3,0,2.1,0C245,405.2,245,366.3,245,327.3z M83.9,135c32.1,21.5,64,42.9,96,64.3
		c0.3-0.4,0.5-0.5,0.6-0.7c19.1-29.5,38.1-59,57.1-88.6c0.4-0.6,0.4-1.7,0-2.3c-5-10-9.8-20.1-15.2-29.8
		c-6.8-12.1-15-23.1-25.7-32.1c-11.6-9.8-24.8-13.3-39.7-10.2c-8.5,1.8-14.9,6-19.5,13.6c-10.5,17.3-21.3,34.3-32.1,51.4
		C98.4,111.9,91.2,123.3,83.9,135z"/>
	<path class="st0" d="M327.5,478.6c-3.1-1.3-5.2-3.7-7-6.4c-10.8-16.5-21.6-33.1-32.4-49.7c-7-10.7-13.9-21.4-21-32.1
		c-0.6-1-0.7-1.6-0.1-2.6c16.7-29,33.4-58,50.2-86.9c0.3-0.6,0.7-1.2,1.2-1.7c2.8-3,7.2-2,8.3,1.8c0.5,1.6,0.7,3.3,0.7,4.9
		c0.1,5.3,0.1,10.6,0.1,16c0,0.7,0,1.3,0,2.1c0.6,0.1,1.1,0.1,1.6,0.1c28.5,0,57,0,85.5-0.1c11,0,22-0.9,32.7-3.6
		c12.5-3.1,23.1-9.6,32.4-18.3c2.3-2.1,4.6-4.3,6.6-6.2c0.1-0.2,0,0.2-0.2,0.5c-23.8,43.3-47.6,86.5-71.4,129.8
		c-6.4,11.6-16.2,17.6-29.1,18.9c-2.8,0.3-5.6,0.3-8.3,0.4c-13.5,0-27.1,0-40.6,0c-0.7,0-1.3,0-2.2,0c0,1.4,0,2.6,0,3.8
		c0,7.4,0,14.8,0,22.3c0,4.2-0.6,5.1-4.5,6.6c-0.2,0.1-0.4,0.2-0.6,0.4C328.8,478.6,328.2,478.6,327.5,478.6z"/>
	<path class="st0" d="M487.5,261.5c-1,3.5-1.7,7.1-3.1,10.4c-2.6,6.3-7.1,11.4-12.1,16c-6.5,5.9-13.4,11.1-21.4,14.7
		c-6.4,2.9-13.1,4.6-20.2,4.6c-15.4-0.1-30.8,0-46.2,0c-1.1,0-1.8-0.2-2.4-1.2c-18.7-31-37.5-62-56.2-93c-0.2-0.3-0.4-0.6-0.7-1.2
		c33-19.2,66-38.4,99.2-57.7c0.4,0.7,0.8,1.2,1.2,1.8c18.6,28.5,37.3,56.9,55.9,85.4c2.9,4.4,5,9.1,6,14.3
		C487.5,257.5,487.5,259.5,487.5,261.5z"/>
	<path class="st0" d="M179.4,21.4c0.6,0,1.2,0,1.8,0c42.1,0,84.2,0,126.3,0c10.4,0,20.6,1,30.4,4.7c12,4.4,20.9,12.3,26.7,23.8
		c6.5,13,13.1,26,19.6,39c0.3,0.6,0.6,1.2,1,1.9c3-1.3,5.8-2.7,8.8-4c6-2.7,12.1-5.3,18.2-7.9c2.1-0.9,3.7-0.1,4.3,2.2
		c1,3.7,0.4,7.3-1.4,10.6c-3.3,6.1-6.9,12-10.4,17.9c-13.1,22.1-26.3,44.3-39.4,66.4c-0.7,1.2-1.4,1.6-2.8,1.5
		c-10.3-0.9-20.6-1.7-30.9-2.5c-8.3-0.7-16.6-1.3-24.9-2c-10.3-0.8-20.6-1.7-30.9-2.5c-5.1-0.4-10.1-0.8-15.1-1.2
		c-4.3-0.4-6.3-3.3-5.2-7.3c0.5-1.8,1.8-2.7,3.4-3.4c5.5-2.6,10.9-5.2,16.4-7.8c0.7-0.3,1.3-0.7,2.1-1.1c-2.1-4.4-4.2-8.7-6.2-13
		c-8.1-17-16.2-34-24.5-50.9c-5.9-12-12.9-23.5-20.9-34.3c-9.1-12.4-20.6-21.5-35.4-26.2c-3.7-1.2-7.3-2.5-11-3.8
		C179.4,21.6,179.4,21.5,179.4,21.4z"/>
	<path class="st0" d="M89,414.1c-1.6-2.9-3.3-5.7-4.9-8.6C62.5,367.7,40.8,330,19.2,292.2c-3-5.3-5.5-10.7-6.4-16.8
		c-1-6.7,0.7-12.9,3.8-18.6c4.5-8.2,9.4-16.1,14.4-24c4.5-7.2,9.2-14.4,13.9-21.6c-0.5-0.3-0.9-0.6-1.4-0.9
		c-6.3-3.8-12.7-7.7-19-11.5c-0.9-0.5-1.8-1.1-2.6-1.7c-3-2.1-3.4-3.2-2.6-6.2c0.7-2.5,2.8-4.1,5.6-4.3c1.8-0.1,3.6-0.2,5.4-0.3
		c18-0.4,36.1-0.8,54.2-1.3c14.5-0.3,29.1-0.7,43.6-1.1c1.4,0,2.2,0.4,2.8,1.6c15.2,28.6,30.4,57.1,45.5,85.7c1.3,2.5,2.1,5.2,2.9,8
		c0.5,1.7,0,3.4-1.7,4.4c-1.6,0.9-3.2,1.1-5,0c-6.5-4.1-13-8-19.7-12.1c-0.3,0.3-0.6,0.6-0.8,1c-18.5,29.1-37.1,58.1-55.4,87.3
		c-7.3,11.7-10.5,24.6-9.5,38.4c0.4,5,1.3,10,2,15c0,0.3,0.1,0.6,0.1,0.9C89.2,414,89.1,414,89,414.1z"/>
	<path class="st0" d="M245,327.3c0,39,0,77.9,0,117c-0.7,0-1.4,0-2.1,0c-36.4,0-72.8,0-109.3,0c-8,0-15.3-1.9-20.8-8.3
		c-3.7-4.3-5.9-9.3-7.1-14.7c-5.2-22.3-2.6-43.4,10.1-62.9c6.5-10,13.3-20,19.9-29.9c0.5-0.8,1.1-1.3,2.2-1.3c35.3,0,70.6,0,105.9,0
		C244.2,327.2,244.5,327.3,245,327.3z"/>
	<path class="st0" d="M83.9,135c7.3-11.6,14.4-23,21.6-34.5c10.7-17.1,21.6-34.1,32.1-51.4c4.6-7.6,11-11.8,19.5-13.6
		c14.9-3.1,28.1,0.3,39.7,10.2c10.7,9,18.9,20.1,25.7,32.1c5.5,9.7,10.2,19.8,15.2,29.8c0.3,0.6,0.3,1.7,0,2.3
		c-19,29.6-38.1,59.1-57.1,88.6c-0.1,0.2-0.3,0.4-0.6,0.7C148,177.9,116,156.5,83.9,135z"/>
</g>
</svg>
