<?xml version="1.0" encoding="utf-8"?>
<!-- Generator: Adobe Illustrator 24.2.1, SVG Export Plug-In . SVG Version: 6.00 Build 0)  -->
<svg version="1.1" xmlns="http://www.w3.org/2000/svg" xmlns:xlink="http://www.w3.org/1999/xlink" x="0px" y="0px"
	 viewBox="0 0 500 500" style="enable-background:new 0 0 500 500;" xml:space="preserve">
<style type="text/css">
	.st0{display:none;}
	.st1{display:inline;fill:#F2EDE4;}
	.st2{fill:#223A59;}
	.st3{fill:#FFFFFF;}
	.st4{fill:#D8E6EA;}
	.st5{fill:#ABD99C;}
	.st6{fill:#F4A68C;}
</style>
<g id="Lager_3" class="st0">
	<rect x="-4" y="-6" class="st1" width="512" height="510"/>
</g>
<g id="Lager_2">
	<rect x="277.76" y="155.31" class="st2" width="4.41" height="273.67"/>
	<rect x="285.11" y="153.83" class="st2" width="4.41" height="273.67"/>
	<rect x="292.47" y="152.36" class="st2" width="4.41" height="273.67"/>
	<rect x="299.83" y="150.89" class="st2" width="4.41" height="273.67"/>
	<rect x="304.24" y="149.42" class="st2" width="4.41" height="273.67"/>
	<rect x="311.6" y="149.42" class="st2" width="4.41" height="273.67"/>
	<rect x="271.87" y="150.89" class="st2" width="4.41" height="273.67"/>
	<rect x="248.33" y="155.31" class="st2" width="4.41" height="273.67"/>
	<rect x="255.69" y="153.83" class="st2" width="4.41" height="273.67"/>
	<rect x="263.04" y="152.36" class="st2" width="4.41" height="273.67"/>
	<rect x="270.4" y="150.89" class="st2" width="4.41" height="273.67"/>
	<rect x="279.23" y="149.42" class="st2" width="4.41" height="273.67"/>
	<rect x="242.45" y="150.89" class="st2" width="4.41" height="273.67"/>
	<path class="st3" d="M132.63,369.6c0,0,1.39-34.17,41.28-45.2c37.15-10.27,49.54,21.57,53.67,18.49
		c4.13-3.08,31.99-20.54,76.37-17.46s48.5,28.76,48.5,28.76s20.75-29.43,68.11-8.22c20.64,9.24,36.12,34.92,14.45,76.01
		s-177.51,9.24-177.51,9.24s-113.52,11.3-133.13-17.46S132.63,369.6,132.63,369.6z"/>
</g>
<g id="Lager_1">
	<g>
		<g>
			<path class="st4" d="M137.89,257.5l-97.93-18.92l7.7-39.86c0.63-3.29,3.81-5.44,7.1-4.8l86.03,16.62c3.29,0.63,5.44,3.81,4.8,7.1
				L137.89,257.5z"/>
		</g>
		<g>
			<path class="st2" d="M53.47,241.18l-1.34-0.26c-0.61-0.12-1.01-0.71-0.89-1.32l8.73-45.18c0.12-0.61,0.71-1.01,1.32-0.89
				l1.34,0.26c0.61,0.12,1.01,0.71,0.89,1.32l-8.73,45.18C54.67,240.9,54.08,241.3,53.47,241.18z"/>
		</g>
		<g>
			<path class="st2" d="M45.57,239.66l-1.34-0.26c-0.61-0.12-1.01-0.71-0.89-1.32l8.73-45.18c0.12-0.61,0.71-1.01,1.32-0.89
				l1.34,0.26c0.61,0.12,1.01,0.71,0.89,1.32l-8.73,45.18C46.77,239.38,46.18,239.78,45.57,239.66z"/>
		</g>
		<g>
			<path class="st2" d="M61.47,242.73l-1.34-0.26c-0.61-0.12-1.01-0.71-0.89-1.32l8.73-45.18c0.12-0.61,0.71-1.01,1.32-0.89
				l1.34,0.26c0.61,0.12,1.01,0.71,0.89,1.32l-8.73,45.18C62.67,242.45,62.08,242.85,61.47,242.73z"/>
		</g>
		<g>
			<path class="st2" d="M69.46,244.27l-1.34-0.26c-0.61-0.12-1.01-0.71-0.89-1.32l8.73-45.18c0.12-0.61,0.71-1.01,1.32-0.89
				l1.34,0.26c0.61,0.12,1.01,0.71,0.89,1.32l-8.73,45.18C70.66,243.99,70.07,244.39,69.46,244.27z"/>
		</g>
		<g>
			<path class="st2" d="M76.57,245.65l-1.34-0.26c-0.61-0.12-1.01-0.71-0.89-1.32l8.73-45.18c0.12-0.61,0.71-1.01,1.32-0.89
				l1.34,0.26c0.61,0.12,1.01,0.71,0.89,1.32l-8.73,45.18C77.77,245.37,77.18,245.77,76.57,245.65z"/>
		</g>
		<g>
			<path class="st2" d="M84.57,247.19l-1.34-0.26c-0.61-0.12-1.01-0.71-0.89-1.32l8.73-45.18c0.12-0.61,0.71-1.01,1.32-0.89
				l1.34,0.26c0.61,0.12,1.01,0.71,0.89,1.32l-8.73,45.18C85.77,246.91,85.18,247.31,84.57,247.19z"/>
		</g>
		<g>
			<path class="st2" d="M92.56,248.74l-1.34-0.26c-0.61-0.12-1.01-0.71-0.89-1.32l8.73-45.18c0.12-0.61,0.71-1.01,1.32-0.89
				l1.34,0.26c0.61,0.12,1.01,0.71,0.89,1.32l-8.73,45.18C93.76,248.46,93.17,248.86,92.56,248.74z"/>
		</g>
		<g>
			<path class="st2" d="M99.28,250.04l-1.34-0.26c-0.61-0.12-1.01-0.71-0.89-1.32l8.73-45.18c0.12-0.61,0.71-1.01,1.32-0.89
				l1.34,0.26c0.61,0.12,1.01,0.71,0.89,1.32l-8.73,45.18C100.48,249.75,99.89,250.15,99.28,250.04z"/>
		</g>
		<g>
			<path class="st2" d="M107.27,251.58l-1.34-0.26c-0.61-0.12-1.01-0.71-0.89-1.32l8.73-45.18c0.12-0.61,0.71-1.01,1.32-0.89
				l1.34,0.26c0.61,0.12,1.01,0.71,0.89,1.32l-8.73,45.18C108.47,251.3,107.88,251.7,107.27,251.58z"/>
		</g>
		<g>
			<path class="st2" d="M115.27,253.13l-1.34-0.26c-0.61-0.12-1.01-0.71-0.89-1.32l8.73-45.18c0.12-0.61,0.71-1.01,1.32-0.89
				l1.34,0.26c0.61,0.12,1.01,0.71,0.89,1.32l-8.73,45.18C116.47,252.84,115.88,253.24,115.27,253.13z"/>
		</g>
		<g>
			<path class="st2" d="M122.38,254.5l-1.34-0.26c-0.61-0.12-1.01-0.71-0.89-1.32l8.73-45.18c0.12-0.61,0.71-1.01,1.32-0.89
				l1.34,0.26c0.61,0.12,1.01,0.71,0.89,1.32l-8.73,45.18C123.58,254.22,122.99,254.62,122.38,254.5z"/>
		</g>
		<g>
			<path class="st2" d="M128.79,255.74l-1.34-0.26c-0.61-0.12-1.01-0.71-0.89-1.32l8.73-45.18c0.12-0.61,0.71-1.01,1.32-0.89
				l1.34,0.26c0.61,0.12,1.01,0.71,0.89,1.32l-8.73,45.18C129.99,255.46,129.4,255.86,128.79,255.74z"/>
		</g>
		<g>
			<path class="st2" d="M135.11,256.96l-1.34-0.26c-0.61-0.12-1.01-0.71-0.89-1.32l8.73-45.18c0.12-0.61,0.71-1.01,1.32-0.89
				l1.34,0.26c0.61,0.12,1.01,0.71,0.89,1.32l-8.73,45.18C136.31,256.68,135.72,257.08,135.11,256.96z"/>
		</g>
		<g>
			<path class="st5" d="M153.88,273.7L39.89,251.67c-3.93-0.76-6.49-4.56-5.73-8.48v0c0.76-3.93,4.56-6.49,8.48-5.73l114.34,22.09
				c6.46,1.25,13.1,1.23,19.55-0.05l23.38-4.65c8.44-1.68,17.14-1.54,25.52,0.4l241.79,50.94c7.22,1.51,11.9,8.53,10.5,15.78v0
				c-1.45,7.53-8.88,12.33-16.34,10.58l-233.45-57.65c-6.38-1.23-15.82-3.07-25.58-3.3c-14.36-0.34-28.96,2.81-28.96,2.81
				C166.89,275.18,160.31,274.94,153.88,273.7z"/>
		</g>
		<path class="st3" d="M51.15,163.73c14.77-8.61,26.85,5.19,51.82,11.65s40.35-5.31,52.12,10.07s3.93,22.06-6.46,24.97
			s-48.3-4.42-48.3-4.42s-41.07-7.94-49.63-14.51C38.93,182.46,41.83,169.16,51.15,163.73z"/>
	</g>
	<path class="st6" d="M313.37,199.13h-71.22c-5.52,0-10-4.48-10-10v-9.43c0-5.52,4.48-10,10-10h71.22c5.52,0,10,4.48,10,10v9.43
		C323.37,194.66,318.89,199.13,313.37,199.13z"/>
	<path class="st6" d="M495.52,66.38c0-7.94-6.44-14.38-14.38-14.38H317.48h-60.66c-7.94,0-14.38,6.44-14.38,14.38v47.42v66.55
		c0,7.94,6.44,14.38,14.38,14.38h46.29c7.94,0,14.38-6.44,14.38-14.38v-52.17c0-7.94,6.44-14.38,14.38-14.38h149.28
		c7.94,0,14.38-6.44,14.38-14.38V66.38z"/>
</g>
</svg>
