<?xml version="1.0" encoding="utf-8"?>
<!-- Generator: Adobe Illustrator 24.2.1, SVG Export Plug-In . SVG Version: 6.00 Build 0)  -->
<svg version="1.1" id="Train_x5F_konturer" xmlns="http://www.w3.org/2000/svg" xmlns:xlink="http://www.w3.org/1999/xlink" x="0px"
	 y="0px" viewBox="0 0 500 300" style="enable-background:new 0 0 500 300;" xml:space="preserve">
<style type="text/css">
	.st0{fill:#223A59;}
	.st1{fill:#ABD99C;}
	.st2{fill:#F2EDE4;}
</style>
<g>
	<g>
		<path class="st0" d="M194.85,100.8h-54.6c-1.46,0-2.65-1.19-2.65-2.65l0,0c0-1.46,1.19-2.65,2.65-2.65h54.6
			c1.46,0,2.65,1.19,2.65,2.65l0,0C197.5,99.62,196.31,100.8,194.85,100.8z"/>
	</g>
	<g>
		<line x1="157.43" y1="99.36" x2="143.65" y2="109.08"/>
		
			<rect x="142.1" y="103.72" transform="matrix(0.8173 -0.5761 0.5761 0.8173 -32.5509 105.7696)" class="st0" width="16.87" height="1"/>
	</g>
	<g>
		<line x1="177.61" y1="98.87" x2="191.5" y2="108.2"/>
		
			<rect x="184.06" y="95.17" transform="matrix(0.5578 -0.83 0.83 0.5578 -4.3156 198.9666)" class="st0" width="1" height="16.73"/>
	</g>
	<g>
		<path class="st0" d="M354.85,100.8h-54.6c-1.46,0-2.65-1.19-2.65-2.65l0,0c0-1.46,1.19-2.65,2.65-2.65h54.6
			c1.46,0,2.65,1.19,2.65,2.65l0,0C357.5,99.62,356.31,100.8,354.85,100.8z"/>
	</g>
	<g>
		<line x1="317.43" y1="99.36" x2="303.65" y2="109.08"/>
		
			<rect x="302.1" y="103.72" transform="matrix(0.8173 -0.5761 0.5761 0.8173 -3.3264 197.9529)" class="st0" width="16.87" height="1"/>
	</g>
	<g>
		<line x1="338.61" y1="98.87" x2="352.5" y2="108.2"/>
		
			<rect x="345.06" y="95.17" transform="matrix(0.5578 -0.83 0.83 0.5578 66.8854 332.5991)" class="st0" width="1" height="16.73"/>
	</g>
	<path class="st1" d="M234.14,200.39H31.28c-9.63,0-15.96-9.67-11.8-18.02l7.91-15.88c17.79-35.7,55.3-58.42,96.47-58.42h110.28
		c6.82,0,12.36,5.32,12.36,11.88v68.56C246.5,195.07,240.97,200.39,234.14,200.39z"/>
	<path class="st2" d="M77.5,156.53c-2.39,3.24-6.27,5.16-10.39,5.13l-25.74-0.17c-2.61-0.01-4.23-2.73-2.95-4.91
		c11.43-19.5,34.41-36.04,63.94-41.03c1.95-0.33,3.35,1.79,2.23,3.36C98.48,127.45,84.42,147.14,77.5,156.53z"/>
	<g>
		
			<ellipse transform="matrix(0.4261 -0.9047 0.9047 0.4261 -146.2108 132.889)" class="st2" cx="31.63" cy="181.68" rx="8.9" ry="5.27"/>
	</g>
	<path class="st2" d="M173.5,161.92H89.71c-2.24,0-3.58-2.39-2.36-4.19l21.99-32.38c4.47-6.58,12.09-10.55,20.27-10.55h43.9V161.92z
		"/>
	<path class="st2" d="M224.42,161.92H169.5V114.8h54.92c9.43,0,17.08,7.65,17.08,17.08v12.96
		C241.5,154.28,233.85,161.92,224.42,161.92z"/>
	<rect x="131.5" y="113.5" class="st1" width="1" height="54"/>
	<rect x="169" y="113.5" class="st1" width="1" height="54"/>
	<rect x="204" y="113.5" class="st1" width="1" height="54"/>
	<path class="st1" d="M263.54,200.39H466.4c9.63,0,15.96-9.67,11.8-18.02l-7.91-15.88c-17.79-35.7-55.3-58.42-96.47-58.42H263.54
		c-6.82,0-12.36,5.32-12.36,11.88v68.56C251.18,195.07,256.71,200.39,263.54,200.39z"/>
	<path class="st2" d="M420.18,156.53c2.39,3.24,6.27,5.16,10.39,5.13l25.74-0.17c2.61-0.01,4.23-2.73,2.95-4.91
		c-11.43-19.5-34.41-36.04-63.94-41.03c-1.95-0.33-3.35,1.79-2.23,3.36C399.19,127.45,413.26,147.14,420.18,156.53z"/>
	<g>
		
			<ellipse transform="matrix(0.9047 -0.4261 0.4261 0.9047 -32.9904 215.8887)" class="st2" cx="466.05" cy="181.68" rx="5.27" ry="8.9"/>
	</g>
	<path class="st2" d="M324.18,161.92h83.79c2.24,0,3.58-2.39,2.36-4.19l-21.99-32.38c-4.47-6.58-12.09-10.55-20.27-10.55h-43.9
		V161.92z"/>
	<path class="st2" d="M273.26,161.92h54.92V114.8h-54.92c-9.43,0-17.08,7.65-17.08,17.08v12.96
		C256.18,154.28,263.83,161.92,273.26,161.92z"/>
	<rect x="365.18" y="113.5" class="st1" width="1" height="54"/>
	<rect x="327.68" y="113.5" class="st1" width="1" height="54"/>
	<rect x="292.68" y="113.5" class="st1" width="1" height="54"/>
	<path class="st1" d="M253,190.5h-11c-3.59,0-6.5-2.91-6.5-6.5v-6.5c0-3.59,2.91-6.5,6.5-6.5h11c3.59,0,6.5,2.91,6.5,6.5v6.5
		C259.5,187.59,256.59,190.5,253,190.5z"/>
	<g>
		<line class="st2" x1="18" y1="204.5" x2="482" y2="204.5"/>
		<path class="st0" d="M482,206.5H18c-1.1,0-2-0.9-2-2s0.9-2,2-2h464c1.1,0,2,0.9,2,2S483.1,206.5,482,206.5z"/>
	</g>
</g>
</svg>
